<svg width="25" height="25" fill="none" xmlns="http://www.w3.org/2000/svg"><path fill-rule="evenodd" clip-rule="evenodd" d="M12.333 3.67c-4.968 0-9 4.031-9 9s4.032 9 9 9c4.96 0 9-4.032 9-9 0-4.969-4.04-9-9-9zm5.945 4.149a7.652 7.652 0 011.738 4.783c-.254-.05-2.792-.567-5.35-.245-.058-.126-.107-.263-.166-.4a24.2 24.2 0 00-.507-1.113c2.83-1.151 4.119-2.81 4.285-3.025zm-5.945-2.822A7.67 7.67 0 0117.43 6.93c-.137.195-1.298 1.748-4.032 2.772-1.259-2.313-2.655-4.207-2.87-4.5a7.817 7.817 0 011.806-.205zm-3.27.723a48.522 48.522 0 012.85 4.441c-3.592.957-6.764.937-7.106.937A7.723 7.723 0 019.063 5.72zm-4.422 6.96v-.235c.332.01 4.061.059 7.897-1.093.225.43.43.869.625 1.308-.098.03-.205.059-.303.088-3.963 1.279-6.071 4.773-6.247 5.066a7.67 7.67 0 01-1.972-5.134zm7.692 7.682a7.634 7.634 0 01-4.715-1.62c.137-.284 1.699-3.29 6.033-4.803.02-.01.03-.01.049-.02a31.774 31.774 0 011.64 5.828 7.56 7.56 0 01-3.007.615zm4.286-1.318c-.078-.468-.488-2.714-1.494-5.476 2.411-.38 4.52.244 4.783.332a7.621 7.621 0 01-3.29 5.144z" fill="#000"/></svg>