<svg width="16" height="17" viewBox="0 0 16 17" fill="none" xmlns="http://www.w3.org/2000/svg">
<path d="M12.2541 13.7097L11.5852 14.3618C11.4719 14.4639 11.3393 14.5178 11.1874 14.5233C11.0355 14.5289 10.9029 14.475 10.7896 14.3618C10.6762 14.2485 10.6217 14.1159 10.6259 13.964C10.6301 13.8121 10.6833 13.6795 10.7856 13.5662L11.4417 12.8973L10.7896 12.2452C10.6762 12.1318 10.6196 11.9992 10.6196 11.8473C10.6196 11.6954 10.6762 11.5628 10.7896 11.4495C10.9002 11.3362 11.0322 11.2788 11.1854 11.2775C11.3386 11.2762 11.4719 11.3322 11.5852 11.4455L12.2541 12.0977L12.9062 11.4495C13.0196 11.3362 13.1522 11.2767 13.3041 11.2712C13.4559 11.2656 13.5899 11.3195 13.7059 11.4328C13.8191 11.5462 13.8751 11.6815 13.8737 11.839C13.8724 11.9964 13.8151 12.1318 13.7019 12.2452L13.0537 12.8973L13.7019 13.5622C13.8151 13.6755 13.8717 13.8088 13.8717 13.962C13.8717 14.1152 13.8151 14.2485 13.7019 14.3618C13.5886 14.475 13.4553 14.531 13.3021 14.5297C13.1488 14.5284 13.0169 14.4725 12.9062 14.3618L12.2541 13.7097ZM3.80156 13.652C4.02422 13.652 4.21211 13.5754 4.36522 13.4223C4.51845 13.2692 4.59506 13.0813 4.59506 12.8585C4.59506 12.6358 4.51845 12.4479 4.36522 12.2948C4.21211 12.1416 4.02422 12.065 3.80156 12.065C3.57878 12.065 3.39084 12.1416 3.23772 12.2948C3.08461 12.4479 3.00806 12.6358 3.00806 12.8585C3.00806 13.0813 3.08461 13.2692 3.23772 13.4223C3.39084 13.5754 3.57878 13.652 3.80156 13.652ZM3.80156 14.7597C3.26911 14.7597 2.81917 14.5759 2.45172 14.2083C2.08417 13.8409 1.90039 13.3909 1.90039 12.8585C1.90039 12.3288 2.08417 11.8795 2.45172 11.5107C2.81917 11.1419 3.26911 10.9575 3.80156 10.9575C4.22111 10.9575 4.59334 11.0792 4.91822 11.3225C5.24311 11.5658 5.46772 11.8835 5.59206 12.2755C6.10417 12.2586 6.53889 12.065 6.89622 11.6948C7.25356 11.3245 7.43222 10.8833 7.43222 10.3712V7.29482C7.43222 6.40638 7.74389 5.65049 8.36722 5.02716C8.99056 4.40382 9.74778 4.09216 10.6389 4.09216H11.9034L11.1402 3.32916C11.0323 3.22116 10.9812 3.09254 10.9867 2.94332C10.9923 2.7941 11.053 2.66149 11.1689 2.54549C11.2822 2.43216 11.4155 2.37549 11.5687 2.37549C11.7219 2.37549 11.8552 2.43216 11.9686 2.54549L13.7019 4.25816C13.8151 4.37149 13.8717 4.50543 13.8717 4.65999C13.8717 4.81454 13.8151 4.94849 13.7019 5.06182L11.9686 6.79116C11.8552 6.90449 11.7213 6.96049 11.5667 6.95916C11.4122 6.95782 11.2756 6.89782 11.1569 6.77916C11.0463 6.6686 10.9883 6.53721 10.9827 6.38499C10.9772 6.23277 11.031 6.10138 11.1442 5.99082L11.9072 5.22782H10.6389C10.0628 5.22782 9.57356 5.42893 9.17122 5.83116C8.769 6.23349 8.56789 6.72138 8.56789 7.29482V10.3712C8.56789 11.1929 8.28334 11.8982 7.71422 12.4868C7.14511 13.0755 6.451 13.3823 5.63189 13.4072C5.50434 13.8093 5.2735 14.1352 4.93939 14.385C4.60517 14.6348 4.22589 14.7597 3.80156 14.7597ZM3.76272 5.23499L3.09389 5.88716C2.978 5.99204 2.84472 6.0466 2.69406 6.05082C2.5435 6.05504 2.41156 6.00049 2.29822 5.88716C2.18234 5.77382 2.1265 5.64121 2.13072 5.48932C2.13495 5.33743 2.18945 5.20482 2.29422 5.09149L2.95039 4.42266L2.29822 3.77049C2.18234 3.65716 2.12439 3.52454 2.12439 3.37266C2.12439 3.22077 2.18234 3.08816 2.29822 2.97482C2.40889 2.8616 2.54017 2.80432 2.69206 2.80299C2.84406 2.80166 2.978 2.8576 3.09389 2.97082L3.76272 3.62299L4.41489 2.97482C4.52822 2.8616 4.66084 2.80221 4.81272 2.79666C4.96461 2.7911 5.09722 2.84493 5.21056 2.95816C5.32389 3.07149 5.38056 3.20754 5.38056 3.36632C5.38056 3.5251 5.32389 3.66116 5.21056 3.77449L4.55839 4.42266L5.21056 5.08749C5.32389 5.20349 5.38056 5.33743 5.38056 5.48932C5.38056 5.64121 5.32389 5.77382 5.21056 5.88716C5.09467 6.00049 4.96072 6.05716 4.80872 6.05716C4.65684 6.05716 4.52556 6.00049 4.41489 5.88716L3.76272 5.23499Z" fill="black"/>
</svg>
