<svg width="16" height="17" viewBox="0 0 16 17" fill="none" xmlns="http://www.w3.org/2000/svg">
<path d="M4.13572 12.0931C3.88594 12.0931 3.67322 12.0051 3.49755 11.8291C3.32178 11.6532 3.23389 11.4401 3.23389 11.1896C3.23389 10.9464 3.32189 10.7351 3.49789 10.5558C3.67378 10.3766 3.88694 10.287 4.13739 10.287C4.38061 10.287 4.59189 10.3767 4.77122 10.5563C4.95044 10.736 5.04005 10.9476 5.04005 11.1913C5.04005 11.4411 4.95028 11.6538 4.77072 11.8295C4.59105 12.0052 4.37939 12.0931 4.13572 12.0931ZM4.13572 7.0333C3.88594 7.0333 3.67322 6.94535 3.49755 6.76947C3.32178 6.59347 3.23389 6.38024 3.23389 6.1298C3.23389 5.88658 3.32189 5.67535 3.49789 5.49613C3.67378 5.3168 3.88694 5.22713 4.13739 5.22713C4.38061 5.22713 4.59189 5.31697 4.77122 5.49663C4.95044 5.67619 5.04005 5.88785 5.04005 6.13163C5.04005 6.3813 4.95028 6.59402 4.77072 6.7698C4.59105 6.94547 4.37939 7.0333 4.13572 7.0333ZM7.19872 9.22796C7.03583 9.22796 6.89983 9.17308 6.79072 9.0633C6.68161 8.95363 6.62705 8.81824 6.62705 8.65713C6.62705 8.49613 6.68161 8.36174 6.79072 8.25397C6.89983 8.14619 7.03583 8.0923 7.19872 8.0923H8.80572C8.96594 8.0923 9.10061 8.14719 9.20972 8.25697C9.31883 8.36663 9.37339 8.50202 9.37339 8.66313C9.37339 8.82413 9.31883 8.95852 9.20972 9.0663C9.10061 9.17408 8.96594 9.22796 8.80572 9.22796H7.19872ZM11.6589 8.66013C11.6589 8.03258 11.5691 7.42952 11.3894 6.85097C11.2096 6.2723 10.9477 5.73685 10.6036 5.24463C10.5067 5.10641 10.4623 4.95647 10.4706 4.7948C10.4788 4.63302 10.5451 4.50108 10.6694 4.39897C10.7938 4.29674 10.9333 4.2553 11.0879 4.27463C11.2424 4.29397 11.3682 4.37135 11.4651 4.5068C11.8835 5.10302 12.2097 5.7508 12.4436 6.45013C12.6774 7.14947 12.7944 7.88635 12.7944 8.6608C12.7944 9.29835 12.7145 9.9083 12.5547 10.4906C12.3949 11.073 12.1719 11.6197 11.8857 12.1308C11.8106 12.2726 11.6993 12.3619 11.5519 12.3988C11.4044 12.4356 11.2629 12.4097 11.1274 12.3213C10.9893 12.233 10.9071 12.1114 10.8809 11.9565C10.8547 11.8017 10.8789 11.6525 10.9536 11.509C11.177 11.0724 11.3504 10.6176 11.4737 10.1445C11.5972 9.67135 11.6589 9.17658 11.6589 8.66013Z" fill="black"/>
</svg>
