<svg width="16" height="17" fill="none" xmlns="http://www.w3.org/2000/svg"><path d="M4.136 12.093a.868.868 0 01-.638-.264.871.871 0 01-.264-.64c0-.243.088-.454.264-.633a.863.863 0 01.64-.269c.243 0 .454.09.633.27a.87.87 0 01.269.634.86.86 0 01-.27.638.878.878 0 01-.634.264zm0-5.06a.869.869 0 01-.638-.264.872.872 0 01-.264-.64c0-.242.088-.454.264-.633a.863.863 0 01.64-.269c.243 0 .454.09.633.27a.87.87 0 01.269.635.86.86 0 01-.27.638.878.878 0 01-.634.263zm3.063 2.195a.552.552 0 01-.408-.165.553.553 0 01-.164-.406.557.557 0 01.572-.565h1.607c.16 0 .295.055.404.165.109.11.163.245.163.406a.552.552 0 01-.568.565H7.2zm4.46-.568c0-.627-.09-1.23-.27-1.809a5.779 5.779 0 00-.785-1.606.702.702 0 01-.133-.45.526.526 0 01.198-.396.531.531 0 01.419-.124.53.53 0 01.377.232 7.53 7.53 0 01.979 1.943c.233.7.35 1.436.35 2.21 0 .638-.08 1.248-.24 1.83a7.292 7.292 0 01-.668 1.64.519.519 0 01-.758.19.521.521 0 01-.247-.363.695.695 0 01.073-.448c.223-.437.396-.891.52-1.364.123-.474.185-.968.185-1.485z" fill="#000"/></svg>