<svg width="16" height="17" viewBox="0 0 16 17" fill="none" xmlns="http://www.w3.org/2000/svg">
<path d="M7.99796 15.4545C7.4683 15.4545 7.01935 15.2698 6.65113 14.9003C6.28291 14.5309 6.0988 14.0813 6.0988 13.5515C6.0988 13.0217 6.28357 12.5728 6.65313 12.2046C7.02257 11.8364 7.47219 11.6523 8.00196 11.6523C8.53163 11.6523 8.98057 11.8371 9.3488 12.2066C9.71702 12.5761 9.90113 13.0256 9.90113 13.5553C9.90113 14.0851 9.71635 14.5341 9.3468 14.9023C8.97735 15.2704 8.52774 15.4545 7.99796 15.4545ZM7.43213 7.63931V2.47848C7.43213 2.31814 7.48702 2.18342 7.5968 2.07431C7.70646 1.9652 7.84185 1.91064 8.00296 1.91064C8.16396 1.91064 8.29835 1.9652 8.40613 2.07431C8.51391 2.18342 8.5678 2.31814 8.5678 2.47848V7.63931L9.98546 6.22148C10.1001 6.10825 10.234 6.05164 10.387 6.05164C10.54 6.05164 10.6722 6.10664 10.7838 6.21664C10.8954 6.33242 10.9517 6.46909 10.953 6.62664C10.9543 6.78409 10.8984 6.91981 10.7851 7.03381L8.4018 9.41714C8.28757 9.53048 8.15341 9.58714 7.9993 9.58714C7.84519 9.58714 7.71146 9.53048 7.59813 9.41714L5.19813 7.01714C5.08491 6.90392 5.02896 6.77092 5.0303 6.61814C5.03152 6.46548 5.0888 6.33192 5.20213 6.21748C5.31546 6.10425 5.44807 6.04764 5.59996 6.04764C5.75185 6.04764 5.88446 6.10425 5.9978 6.21748L7.43213 7.63931Z" fill="black"/>
</svg>
