<svg width="16" height="17" fill="none" xmlns="http://www.w3.org/2000/svg"><path d="M7.998 15.454a1.83 1.83 0 01-1.347-.554 1.839 1.839 0 01-.552-1.348c0-.53.185-.98.554-1.347.37-.369.82-.553 1.349-.553.53 0 .979.185 1.347.555.368.37.552.819.552 1.348 0 .53-.185.98-.554 1.347a1.84 1.84 0 01-1.349.553zM7.432 7.64V2.48c0-.16.055-.296.165-.405a.553.553 0 01.406-.163.553.553 0 01.565.568v5.16l1.417-1.418a.554.554 0 01.402-.17c.153 0 .285.056.397.166a.578.578 0 01.169.41.55.55 0 01-.168.407L8.402 9.417a.553.553 0 01-.403.17.549.549 0 01-.4-.17l-2.4-2.4a.558.558 0 01.004-.8.545.545 0 01.397-.17c.152 0 .284.057.398.17L7.432 7.64z" fill="#000"/></svg>