<svg width="16" height="17" fill="none" xmlns="http://www.w3.org/2000/svg"><path d="M12.254 13.71l-.669.652a.61.61 0 01-.398.161.516.516 0 01-.397-.161.523.523 0 01-.164-.398.6.6 0 01.16-.398l.656-.669-.652-.652a.545.545 0 01-.17-.398.54.54 0 01.17-.397.541.541 0 01.395-.172.54.54 0 01.4.167l.67.653.651-.649a.577.577 0 01.398-.178.529.529 0 01.402.162c.113.113.17.248.168.406a.562.562 0 01-.172.406l-.648.652.648.665a.55.55 0 01.17.4.547.547 0 01-.17.4.54.54 0 01-.4.168.547.547 0 01-.396-.168l-.652-.652zm-8.452-.058c.222 0 .41-.077.563-.23a.766.766 0 00.23-.564.766.766 0 00-.23-.563.766.766 0 00-.563-.23.766.766 0 00-.564.23.766.766 0 00-.23.563c0 .223.077.411.23.564.153.153.34.23.564.23zm0 1.108c-.533 0-.983-.184-1.35-.552a1.835 1.835 0 01-.552-1.35c0-.53.184-.979.552-1.347a1.832 1.832 0 011.35-.553 1.866 1.866 0 011.79 1.318 1.834 1.834 0 001.304-.581 1.84 1.84 0 00.536-1.324V7.295c0-.889.312-1.645.935-2.268a3.094 3.094 0 012.272-.935h1.264l-.763-.763a.5.5 0 01-.153-.386.58.58 0 01.182-.398.547.547 0 01.4-.17.55.55 0 01.4.17l1.733 1.713a.55.55 0 01.17.402.55.55 0 01-.17.402l-1.733 1.73a.543.543 0 01-.402.167.57.57 0 01-.41-.18.57.57 0 01-.174-.394.505.505 0 01.161-.394l.763-.763H10.64c-.576 0-1.065.2-1.468.603-.402.402-.603.89-.603 1.464v3.076c0 .822-.285 1.527-.854 2.116a2.917 2.917 0 01-2.082.92 1.913 1.913 0 01-.693.978c-.334.25-.713.375-1.137.375zm-.04-9.525l-.668.652a.605.605 0 01-.4.164.52.52 0 01-.396-.164.518.518 0 01-.167-.398.593.593 0 01.163-.398l.656-.668-.652-.653a.54.54 0 010-.795.55.55 0 01.796-.004l.669.652.652-.648a.577.577 0 01.398-.178.517.517 0 01.398.161c.113.113.17.25.17.408a.557.557 0 01-.17.408l-.653.649.653.664a.558.558 0 010 .8.558.558 0 01-.402.17.532.532 0 01-.394-.17l-.652-.652z" fill="#000"/></svg>