<svg width="49" height="48" fill="none" xmlns="http://www.w3.org/2000/svg"><path d="M18.274 40.299a3.39 3.39 0 01-1.545-.364 3.26 3.26 0 01-1.19-1.004L5.898 26.04a3.248 3.248 0 01-.684-2.031c0-.76.228-1.442.684-2.047L15.49 9.068a3.367 3.367 0 012.735-1.38h23.384c.949.001 1.755.334 2.42.999.666.665.999 1.472.999 2.42v25.785c0 .945-.333 1.75-.998 2.412a3.303 3.303 0 01-2.42.995H18.273zm-.012-3.395h23.36V11.095h-23.36L8.62 24l9.642 12.904zm2.054-10.747c.617 0 1.132-.206 1.544-.62.413-.414.619-.927.619-1.538 0-.612-.207-1.124-.62-1.537-.414-.413-.926-.62-1.537-.62-.621 0-1.138.207-1.551.621-.413.414-.62.927-.62 1.538 0 .612.207 1.124.62 1.537.413.413.928.62 1.545.62zm7.688 0c.621 0 1.138-.206 1.551-.62.413-.414.62-.927.62-1.538 0-.612-.207-1.124-.62-1.537-.413-.413-.928-.62-1.545-.62-.617 0-1.132.207-1.544.621-.413.414-.619.927-.619 1.538 0 .612.207 1.124.62 1.537.414.413.926.62 1.537.62zm7.702 0c.617 0 1.132-.206 1.545-.62.413-.414.62-.927.62-1.538 0-.612-.208-1.124-.621-1.537-.414-.413-.926-.62-1.537-.62-.621 0-1.136.207-1.545.621-.409.414-.613.927-.613 1.538 0 .612.204 1.124.612 1.537.409.413.921.62 1.539.62z" fill="#000"/></svg>