<svg width="49" height="48" fill="none" xmlns="http://www.w3.org/2000/svg"><path d="M9.44 44.349c-.92 0-1.717-.338-2.392-1.013-.676-.676-1.014-1.474-1.014-2.393V7.107c0-.923.338-1.723 1.014-2.401.675-.678 1.473-1.017 2.393-1.017h25.785c.923 0 1.724.339 2.401 1.017.678.678 1.017 1.478 1.017 2.401V22.07c0 .49-.168.898-.505 1.225a1.673 1.673 0 01-1.243.479c-.483-.008-.882-.174-1.198-.498-.315-.325-.472-.726-.472-1.206V7.107H23.433V19.36a.835.835 0 01-.429.761c-.285.172-.578.167-.876-.015l-3.495-2.155-3.482 2.155c-.307.182-.603.187-.889.015a.835.835 0 01-.429-.762V7.108H9.441v33.835H22.6c.48 0 .884.164 1.212.493.327.329.49.735.49 1.218 0 .484-.163.887-.49 1.21a1.657 1.657 0 01-1.212.485H9.44zM36.734 46c-2.7 0-4.975-.925-6.825-2.775-1.85-1.85-2.775-4.125-2.775-6.825s.925-4.975 2.775-6.825c1.85-1.85 4.125-2.775 6.825-2.775s4.975.925 6.825 2.775c1.85 1.85 2.775 4.125 2.775 6.825s-.925 4.975-2.775 6.825C41.708 45.075 39.433 46 36.733 46zm-1.144-5.846l4.7-3.02c.266-.159.399-.398.399-.72a.878.878 0 00-.398-.76l-4.701-3.009c-.299-.182-.591-.196-.877-.042-.286.155-.429.401-.429.739v6.117c0 .337.143.583.43.737.285.155.577.141.876-.041z" fill="#000"/></svg>