<svg width="33" height="33" viewBox="0 0 33 33" fill="none" xmlns="http://www.w3.org/2000/svg">
<path d="M16.5 12.2661C16.6251 12.2661 16.7253 12.3039 16.832 12.4106L23.4248 19.0024C23.534 19.1117 23.5693 19.2104 23.5693 19.3267C23.5693 19.443 23.5339 19.5417 23.4248 19.6509C23.3208 19.7549 23.2183 19.7953 23.084 19.7954C22.9494 19.7954 22.8464 19.755 22.7422 19.6509L22.7412 19.6499L16.9707 13.9116L16.499 13.4429L10.2578 19.6841C10.1542 19.7877 10.0655 19.8169 9.95801 19.813C9.83232 19.8084 9.72412 19.7656 9.60938 19.6509C9.50523 19.5467 9.46484 19.4446 9.46484 19.3101C9.46486 19.1756 9.50522 19.0734 9.60938 18.9692L16.168 12.4106C16.2747 12.3039 16.375 12.2662 16.5 12.2661Z" fill="black" stroke="black" stroke-width="1.33333"/>
</svg>
