<svg width="48" height="49" fill="none" xmlns="http://www.w3.org/2000/svg"><path d="M11.095 35.592a3.392 3.392 0 01-1.286-1.25 3.39 3.39 0 01-.478-1.771v-9.95l-4.81-2.63a1.998 1.998 0 01-.681-.651 1.56 1.56 0 01-.226-.826c0-.303.076-.582.228-.837.151-.253.378-.473.68-.657l17.787-9.756c.257-.15.524-.253.801-.31.277-.059.557-.088.841-.088.284 0 .564.031.84.093s.547.164.813.305L45.355 17.99c.296.184.521.409.675.676.155.267.232.552.232.854v13.33c0 .462-.158.85-.473 1.163a1.6 1.6 0 01-1.173.468c-.464 0-.851-.156-1.162-.468a1.582 1.582 0 01-.467-1.163V20.405l-4.407 2.213v9.953c0 .646-.161 1.236-.485 1.77a3.433 3.433 0 01-1.291 1.25l-11.213 6.121a2.417 2.417 0 01-.801.317 4.377 4.377 0 01-1.683 0 2.417 2.417 0 01-.8-.317l-11.213-6.12zM23.95 26.92l15.415-8.42-15.415-8.27L8.635 18.5l15.315 8.42zm0 11.987l11.345-6.266v-8.065l-9.704 5.209c-.257.141-.52.243-.79.305a3.8 3.8 0 01-.851.092c-.299 0-.574-.03-.826-.092a3.152 3.152 0 01-.765-.305l-9.754-5.309v8.165l11.345 6.266z" fill="#000"/></svg>