<svg width="48" height="49" viewBox="0 0 48 49" fill="none" xmlns="http://www.w3.org/2000/svg">
<path d="M11.0955 35.5915C10.5572 35.2928 10.1283 34.8762 9.80901 34.3415C9.49001 33.8072 9.33051 33.2168 9.33051 32.5705V22.6215L4.52151 19.9915C4.21751 19.8045 3.99035 19.5872 3.84001 19.3395C3.68935 19.0915 3.61401 18.8162 3.61401 18.5135C3.61401 18.2105 3.68985 17.9318 3.84151 17.6775C3.99318 17.4235 4.21985 17.2045 4.52151 17.0205L22.3085 7.26399C22.5658 7.11465 22.833 7.01115 23.11 6.95349C23.387 6.89549 23.6673 6.86649 23.951 6.86649C24.235 6.86649 24.5152 6.89732 24.7915 6.95898C25.0675 7.02098 25.3382 7.12265 25.6035 7.26399L45.3555 17.99C45.6518 18.1737 45.8772 18.399 46.0315 18.666C46.1858 18.933 46.263 19.2175 46.263 19.5195V32.85C46.263 33.3123 46.1053 33.6998 45.79 34.0125C45.4743 34.3252 45.0834 34.4815 44.617 34.4815C44.1534 34.4815 43.766 34.3252 43.455 34.0125C43.1437 33.6998 42.988 33.3123 42.988 32.85V20.4055L38.5815 22.618V32.5705C38.5815 33.2168 38.4198 33.8072 38.0965 34.3415C37.7735 34.8762 37.3429 35.2928 36.8045 35.5915L25.5915 41.712C25.3342 41.8693 25.0673 41.975 24.791 42.029C24.5147 42.083 24.2342 42.11 23.9495 42.11C23.6652 42.11 23.3848 42.083 23.1085 42.029C22.8325 41.975 22.5658 41.8693 22.3085 41.712L11.0955 35.5915ZM23.95 26.9205L39.365 18.5L23.95 10.2295L8.63501 18.5L23.95 26.9205ZM23.95 38.9085L35.2945 32.6425V24.577L25.5915 29.786C25.3342 29.9273 25.0708 30.029 24.8015 30.091C24.5325 30.1527 24.2487 30.1835 23.95 30.1835C23.6513 30.1835 23.3758 30.1527 23.1235 30.091C22.8708 30.029 22.6158 29.9273 22.3585 29.786L12.6055 24.477V32.6425L23.95 38.9085Z" fill="black"/>
</svg>
