<svg width="32" height="46" viewBox="0 0 32 46" fill="none" xmlns="http://www.w3.org/2000/svg">
<path d="M4.11967 45.299C3.17134 45.299 2.3645 44.9675 1.69917 44.3045C1.03384 43.6415 0.701172 42.8375 0.701172 41.8925V4.10749C0.701172 3.18416 1.04017 2.38366 1.71817 1.70599C2.39584 1.02799 3.19634 0.688995 4.11967 0.688995H25.7807C26.729 0.688995 27.5358 1.02166 28.2012 1.68699C28.8665 2.35233 29.1992 3.15916 29.1992 4.10749V11.34C29.7992 11.475 30.3012 11.785 30.7052 12.27C31.1092 12.755 31.3112 13.3 31.3112 13.905V17.59C31.3112 18.2393 31.1092 18.8093 30.7052 19.3C30.3012 19.7907 29.7992 20.1022 29.1992 20.2345V41.8925C29.1992 42.8375 28.8665 43.6415 28.2012 44.3045C27.5358 44.9675 26.729 45.299 25.7807 45.299H4.11967ZM4.10767 41.9045H25.7927V4.09549H4.10767V41.9045ZM9.00917 30.988H20.9912C21.5572 30.988 22.0315 30.7963 22.4142 30.413C22.7968 30.0297 22.9882 29.5555 22.9882 28.9905V25.6495C22.9882 25.4832 22.9235 25.323 22.7942 25.169C22.6648 25.015 22.5128 24.9253 22.3382 24.9C21.9382 24.7597 21.6132 24.5143 21.3632 24.164C21.1132 23.8133 20.9882 23.4253 20.9882 23C20.9882 22.5747 21.1132 22.1867 21.3632 21.836C21.6132 21.4857 21.9382 21.2403 22.3382 21.1C22.5048 21.0747 22.6548 20.989 22.7882 20.843C22.9215 20.697 22.9882 20.5327 22.9882 20.35V17.0095C22.9882 16.4445 22.7968 15.9703 22.4142 15.587C22.0315 15.2037 21.5572 15.012 20.9912 15.012H9.00917C8.44317 15.012 7.96884 15.2037 7.58617 15.587C7.2035 15.9703 7.01217 16.4445 7.01217 17.0095V20.3505C7.01217 20.5168 7.07684 20.677 7.20617 20.831C7.3355 20.985 7.4875 21.0747 7.66217 21.1C8.06217 21.2403 8.38717 21.4857 8.63717 21.836C8.88717 22.1867 9.01217 22.5747 9.01217 23C9.01217 23.4253 8.88717 23.8133 8.63717 24.164C8.38717 24.5143 8.06217 24.7597 7.66217 24.9C7.4955 24.9253 7.3455 25.011 7.21217 25.157C7.07884 25.303 7.01217 25.4673 7.01217 25.65V28.9905C7.01217 29.5555 7.2035 30.0297 7.58617 30.413C7.96884 30.7963 8.44317 30.988 9.00917 30.988ZM15.0002 27.988C14.7335 27.988 14.5002 27.89 14.3002 27.694C14.1002 27.498 14.0002 27.2627 14.0002 26.988C14.0002 26.7213 14.1002 26.49 14.3002 26.294C14.5002 26.098 14.7335 26 15.0002 26C15.2668 26 15.5002 26.0988 15.7002 26.2965C15.9002 26.4942 16.0002 26.7247 16.0002 26.988C16.0002 27.2627 15.9002 27.498 15.7002 27.694C15.5002 27.89 15.2668 27.988 15.0002 27.988ZM15.0002 24C14.7335 24 14.5002 23.9 14.3002 23.7C14.1002 23.5 14.0002 23.2667 14.0002 23C14.0002 22.7333 14.1002 22.5 14.3002 22.3C14.5002 22.1 14.7335 22 15.0002 22C15.2668 22 15.5002 22.1 15.7002 22.3C15.9002 22.5 16.0002 22.7333 16.0002 23C16.0002 23.2667 15.9002 23.5 15.7002 23.7C15.5002 23.9 15.2668 24 15.0002 24ZM15.0002 20C14.7335 20 14.5002 19.9012 14.3002 19.7035C14.1002 19.5058 14.0002 19.2753 14.0002 19.012C14.0002 18.7373 14.1002 18.502 14.3002 18.306C14.5002 18.11 14.7335 18.012 15.0002 18.012C15.2668 18.012 15.5002 18.11 15.7002 18.306C15.9002 18.502 16.0002 18.7373 16.0002 19.012C16.0002 19.2787 15.9002 19.51 15.7002 19.706C15.5002 19.902 15.2668 20 15.0002 20Z" fill="black"/>
</svg>
