<svg width="49" height="48" viewBox="0 0 49 48" fill="none" xmlns="http://www.w3.org/2000/svg">
<path d="M9.77466 44.349C8.85466 44.349 8.057 44.0112 7.38166 43.3355C6.706 42.6602 6.36816 41.8625 6.36816 40.9425V7.10749C6.36816 6.18416 6.706 5.38366 7.38166 4.70599C8.057 4.02799 8.85466 3.689 9.77466 3.689H35.5597C36.483 3.689 37.2835 4.02799 37.9612 4.70599C38.6392 5.38366 38.9782 6.18416 38.9782 7.10749V22.0705C38.9782 22.5595 38.8097 22.9677 38.4727 23.295C38.1357 23.6223 37.7215 23.782 37.2302 23.774C36.7468 23.766 36.3475 23.5998 36.0322 23.2755C35.7172 22.9515 35.5597 22.5498 35.5597 22.0705V7.10749H23.7672V19.3585C23.7672 19.6942 23.6242 19.948 23.3382 20.12C23.0525 20.2923 22.7603 20.2872 22.4617 20.1045L18.9672 17.95L15.4847 20.1045C15.178 20.2872 14.8818 20.2923 14.5962 20.12C14.3102 19.948 14.1672 19.6942 14.1672 19.3585V7.10749H9.77466V40.9425H22.9337C23.4143 40.9425 23.8183 41.107 24.1457 41.436C24.473 41.765 24.6367 42.1712 24.6367 42.6545C24.6367 43.1378 24.473 43.541 24.1457 43.864C23.8183 44.1873 23.4143 44.349 22.9337 44.349H9.77466ZM37.0672 46C34.3672 46 32.0922 45.075 30.2422 43.225C28.3922 41.375 27.4672 39.1 27.4672 36.4C27.4672 33.7 28.3922 31.425 30.2422 29.575C32.0922 27.725 34.3672 26.8 37.0672 26.8C39.7672 26.8 42.0422 27.725 43.8922 29.575C45.7422 31.425 46.6672 33.7 46.6672 36.4C46.6672 39.1 45.7422 41.375 43.8922 43.225C42.0422 45.075 39.7672 46 37.0672 46ZM35.9227 40.1545L40.6237 37.1335C40.889 36.9755 41.0217 36.7358 41.0217 36.4145C41.0217 36.0932 40.889 35.8398 40.6237 35.6545L35.9227 32.6455C35.624 32.4628 35.3318 32.4488 35.0462 32.6035C34.7602 32.7582 34.6172 33.0042 34.6172 33.3415V39.4585C34.6172 39.7958 34.7602 40.0418 35.0462 40.1965C35.3318 40.3512 35.624 40.3372 35.9227 40.1545Z" fill="black"/>
</svg>
