<svg width="49" height="48" fill="none" xmlns="http://www.w3.org/2000/svg"><path d="M5.729 36.203c-.484 0-.887-.163-1.21-.491a1.657 1.657 0 01-.485-1.212v-21c0-.48.165-.885.494-1.212a1.659 1.659 0 011.218-.492c.484 0 .887.164 1.21.492.323.327.485.731.485 1.212v21c0 .48-.165.885-.494 1.212a1.659 1.659 0 01-1.218.491zm32.376-10.5h-24.01c-.482 0-.886-.164-1.213-.494a1.66 1.66 0 01-.491-1.218c0-.483.163-.886.49-1.21a1.658 1.658 0 011.213-.484h24.01l-6.99-7.054c-.348-.34-.52-.737-.516-1.193.004-.456.176-.854.516-1.194.34-.34.735-.51 1.187-.51.452 0 .852.17 1.2.51l9.938 9.938c.182.183.315.376.398.579a1.67 1.67 0 010 1.26 1.79 1.79 0 01-.398.573L33.5 35.144c-.348.34-.75.511-1.208.515a1.621 1.621 0 01-1.187-.484 1.726 1.726 0 01-.514-1.242c0-.476.17-.885.51-1.227l7.003-7.003z" fill="#000"/></svg>