<svg width="49" height="48" viewBox="0 0 49 48" fill="none" xmlns="http://www.w3.org/2000/svg">
<path d="M5.72868 36.2035C5.24535 36.2035 4.84218 36.0397 4.51918 35.712C4.19585 35.3847 4.03418 34.9807 4.03418 34.5V13.5C4.03418 13.0193 4.19868 12.6153 4.52768 12.288C4.85668 11.9603 5.26285 11.7965 5.74618 11.7965C6.22951 11.7965 6.63285 11.9603 6.95618 12.288C7.27918 12.6153 7.44068 13.0193 7.44068 13.5V34.5C7.44068 34.9807 7.27618 35.3847 6.94718 35.712C6.61818 36.0397 6.21201 36.2035 5.72868 36.2035ZM38.1047 25.7035H14.0942C13.6132 25.7035 13.209 25.5388 12.8817 25.2095C12.5543 24.8805 12.3907 24.4743 12.3907 23.991C12.3907 23.508 12.5543 23.1048 12.8817 22.7815C13.209 22.4582 13.6132 22.2965 14.0942 22.2965H38.1047L31.1137 15.2435C30.7657 14.9035 30.5937 14.5057 30.5977 14.05C30.6017 13.5943 30.7737 13.1965 31.1137 12.8565C31.4533 12.5165 31.8492 12.3465 32.3012 12.3465C32.7528 12.3465 33.1527 12.5165 33.5007 12.8565L43.4387 22.7945C43.6213 22.9772 43.754 23.17 43.8367 23.373C43.919 23.576 43.9602 23.7872 43.9602 24.0065C43.9602 24.2262 43.919 24.4352 43.8367 24.6335C43.754 24.8322 43.6213 25.0228 43.4387 25.2055L33.5007 35.1435C33.1527 35.4835 32.7502 35.6553 32.2932 35.659C31.8362 35.663 31.4403 35.5017 31.1057 35.175C30.763 34.822 30.5917 34.4078 30.5917 33.9325C30.5917 33.4572 30.7617 33.0485 31.1017 32.7065L38.1047 25.7035Z" fill="black"/>
</svg>
