<svg width="48" height="48" fill="none" xmlns="http://www.w3.org/2000/svg"><path d="M9.024 40.976h29.964v-5.641H9.024v5.641zm6.744-8.964h16.465l-1.174-8.357H16.944l-1.176 8.357zM7.405 44.299a1.65 1.65 0 01-1.213-.491 1.647 1.647 0 01-.49-1.212V35.43c0-.949.33-1.756.994-2.421a3.279 3.279 0 012.412-.998h3.337l1.176-8.357H9.857c-.464 0-.856-.16-1.176-.482a1.614 1.614 0 01-.48-1.183c0-.467.16-.86.48-1.178a1.6 1.6 0 011.176-.48h28.287c.467 0 .862.162 1.184.485.322.324.483.72.483 1.19 0 .468-.161.86-.483 1.175a1.628 1.628 0 01-1.184.474H34.38l1.188 8.356h3.325c.948 0 1.755.333 2.42.998s.998 1.472.998 2.42v7.166c0 .48-.166.885-.498 1.212a1.667 1.667 0 01-1.217.491H7.405zm16.603-40c.207 0 .411.037.612.112.2.075.388.183.562.324.9.701 1.825 1.221 2.775 1.56a8.62 8.62 0 002.917.508 9.77 9.77 0 002.35-.295 9.197 9.197 0 002.343-.947c.265-.133.526-.192.782-.176.257.016.48.1.67.253.191.154.343.34.455.561.112.221.13.459.056.713l-2.976 13.42h-3.435l2.276-10.554c-.534.1-1.019.18-1.456.239a9.12 9.12 0 01-1.207.088 11.263 11.263 0 01-3.515-.454A12.13 12.13 0 0124 8.15a12.091 12.091 0 01-3.222 1.501 11.325 11.325 0 01-3.522.454c-.36 0-.757-.03-1.19-.088a29.236 29.236 0 01-1.45-.239l2.265 10.554h-3.423l-2.952-13.42c-.075-.276-.056-.52.056-.734.112-.215.265-.398.46-.55a1.27 1.27 0 01.664-.279c.24-.025.502.045.783.212.75.401 1.522.709 2.315.922a8.658 8.658 0 005.258-.188c.95-.339 1.876-.859 2.776-1.56a1.881 1.881 0 011.189-.436z" fill="#000"/></svg>