<svg width="48" height="48" fill="none" xmlns="http://www.w3.org/2000/svg"><path d="M21.9 22.851l-3.056-3.056c-.116-.117-.386-.095-.811.063-.426.16-.835.305-1.228.439-.394.133-.663.195-.807.186-.145-.008.008-.234.459-.677-.348.34-.522.738-.522 1.194 0 .456.17.858.51 1.206l4.25 4.238c.345.34.749.51 1.21.51.46 0 .86-.17 1.2-.51l9.122-8.5c0-.423-.037-.85-.112-1.281a2.04 2.04 0 00-.577-1.116 1.632 1.632 0 00-1.193-.5c-.46 0-.86.17-1.2.51L21.9 22.85zM1.725 42.443v-3.144h42.99c.442 0 .813.153 1.112.458.299.305.448.68.448 1.124 0 .444-.15.815-.448 1.114a1.51 1.51 0 01-1.112.448H1.725zm5.383-6.144c-.92 0-1.718-.338-2.393-1.014-.676-.675-1.014-1.472-1.014-2.392V9.106c0-.923.338-1.723 1.014-2.401.675-.678 1.473-1.017 2.393-1.017h33.785c.923 0 1.723.339 2.401 1.017.678.678 1.017 1.478 1.017 2.401v23.785c0 .92-.339 1.718-1.017 2.393-.678.676-1.478 1.014-2.401 1.014H7.108zm0-3.407h33.785V9.107H7.108v23.785z" fill="#000"/></svg>