<svg width="48" height="48" viewBox="0 0 48 48" fill="none" xmlns="http://www.w3.org/2000/svg">
<path d="M9.02417 40.976H38.9882V35.335H9.02417V40.976ZM15.7677 32.012H32.2327L31.0592 23.6555H16.9437L15.7677 32.012ZM7.40467 44.299C6.92367 44.299 6.51951 44.1353 6.19217 43.808C5.86484 43.4807 5.70117 43.0765 5.70117 42.5955V35.4305C5.70117 34.4822 6.03267 33.6753 6.69567 33.01C7.35867 32.3447 8.16267 32.012 9.10767 32.012H12.4447L13.6207 23.6555H9.85667C9.39267 23.6555 9.00084 23.4947 8.68117 23.173C8.36117 22.851 8.20117 22.4567 8.20117 21.99C8.20117 21.5233 8.36117 21.1305 8.68117 20.8115C9.00084 20.4922 9.39267 20.3325 9.85667 20.3325H38.1437C38.611 20.3325 39.0057 20.4942 39.3277 20.8175C39.65 21.1408 39.8112 21.5372 39.8112 22.0065C39.8112 22.4755 39.65 22.8675 39.3277 23.1825C39.0057 23.4978 38.611 23.6555 38.1437 23.6555H34.3797L35.5677 32.012H38.8927C39.841 32.012 40.6478 32.3447 41.3132 33.01C41.9785 33.6753 42.3112 34.4822 42.3112 35.4305V42.5955C42.3112 43.0765 42.1452 43.4807 41.8132 43.808C41.4815 44.1353 41.0757 44.299 40.5957 44.299H7.40467ZM24.0077 4.299C24.2153 4.299 24.4193 4.33633 24.6197 4.411C24.8203 4.48566 25.0077 4.59366 25.1817 4.735C26.0817 5.43633 27.0068 5.95633 27.9572 6.295C28.9078 6.634 29.8802 6.8035 30.8742 6.8035C31.6422 6.8035 32.4253 6.70483 33.2237 6.5075C34.0217 6.3105 34.8027 5.995 35.5667 5.561C35.8317 5.42766 36.0925 5.369 36.3492 5.385C36.6055 5.40066 36.829 5.48516 37.0197 5.6385C37.2103 5.79183 37.3617 5.97883 37.4737 6.1995C37.5857 6.4205 37.6043 6.658 37.5297 6.912L34.5537 20.3325H31.1187L33.3947 9.7785C32.8613 9.8785 32.3762 9.95783 31.9392 10.0165C31.5022 10.0752 31.0997 10.1045 30.7317 10.1045C29.5157 10.1362 28.344 9.985 27.2167 9.651C26.0897 9.317 25.0177 8.81666 24.0007 8.15C22.9843 8.81666 21.9103 9.317 20.7787 9.651C19.6467 9.985 18.4727 10.1362 17.2567 10.1045C16.8967 10.1045 16.5002 10.0752 16.0672 10.0165C15.6342 9.95783 15.151 9.8785 14.6177 9.7785L16.8817 20.3325H13.4587L10.5067 6.912C10.432 6.63633 10.4507 6.3915 10.5627 6.1775C10.6747 5.9635 10.8278 5.78033 11.0222 5.628C11.2242 5.46766 11.4457 5.37483 11.6867 5.3495C11.9277 5.32383 12.1887 5.39433 12.4697 5.561C13.2203 5.96233 13.9922 6.26966 14.7852 6.483C15.5778 6.69666 16.3542 6.8035 17.1142 6.8035C18.1162 6.8035 19.0925 6.634 20.0432 6.295C20.9935 5.95633 21.9187 5.43633 22.8187 4.735C22.9893 4.59366 23.1783 4.48566 23.3857 4.411C23.593 4.33633 23.8003 4.299 24.0077 4.299Z" fill="black"/>
</svg>
