<svg width="48" height="48" fill="none" xmlns="http://www.w3.org/2000/svg"><path d="M24 4.19c2.717 0 5.274.521 7.678 1.564 2.412 1.046 4.513 2.467 6.307 4.26 1.794 1.795 3.215 3.897 4.261 6.31 1.042 2.402 1.566 4.96 1.566 7.676 0 2.717-.523 5.274-1.566 7.678-1.046 2.412-2.467 4.514-4.26 6.308-1.794 1.794-3.895 3.212-6.307 4.254-2.403 1.039-4.96 1.56-7.677 1.56-2.547 0-4.954-.457-7.226-1.368l-.452-.189c-2.261-.975-4.25-2.283-5.97-3.923l-.34-.332c-1.797-1.795-3.215-3.898-4.256-6.31C4.72 29.277 4.2 26.719 4.2 24.003c0-2.546.457-4.953 1.37-7.226l.189-.453c1.042-2.413 2.46-4.514 4.255-6.308C11.809 8.22 13.91 6.8 16.322 5.754 18.726 4.71 21.283 4.189 24 4.189zm0 2.418c-4.776 0-8.88 1.708-12.282 5.11-3.402 3.4-5.11 7.504-5.11 12.282 0 4.784 1.708 8.89 5.11 12.288 3.403 3.398 7.503 5.105 12.276 5.105s8.875-1.707 12.281-5.105c3.407-3.398 5.117-7.5 5.118-12.281 0-4.78-1.71-8.887-5.116-12.29-3.405-3.4-7.506-5.108-12.277-5.108zm.152 7.29c.305 0 .541.084.734.244l.08.072c.206.207.315.466.315.816v8.5l.146.146 6.682 6.737.001.002c.237.237.352.512.352.854a1.1 1.1 0 01-.265.75l-.082.087a1.273 1.273 0 01-.888.37 1.032 1.032 0 01-.838-.353l-.006-.006-7.038-7.287a1.643 1.643 0 01-.25-.417l-.032-.098a1.238 1.238 0 01-.044-.338V15.03c0-.349.11-.608.317-.815.208-.207.468-.316.816-.317z" fill="#000" stroke="#000"/></svg>