<svg width="48" height="48" viewBox="0 0 48 48" fill="none" xmlns="http://www.w3.org/2000/svg">
<path d="M16.2152 16.7965C15.7345 16.7965 15.3305 16.632 15.0032 16.303C14.6758 15.974 14.5122 15.5658 14.5122 15.0785C14.5122 14.5915 14.6758 14.1863 15.0032 13.863C15.3305 13.5397 15.7345 13.378 16.2152 13.378H40.5957C41.0757 13.378 41.4815 13.5427 41.8132 13.872C42.1452 14.201 42.3112 14.6092 42.3112 15.0965C42.3112 15.5835 42.1452 15.9887 41.8132 16.312C41.4815 16.635 41.0757 16.7965 40.5957 16.7965H16.2152ZM16.2152 25.7035C15.7345 25.7035 15.3305 25.5388 15.0032 25.2095C14.6758 24.8805 14.5122 24.4743 14.5122 23.991C14.5122 23.508 14.6758 23.1048 15.0032 22.7815C15.3305 22.4582 15.7345 22.2965 16.2152 22.2965H40.5957C41.0757 22.2965 41.4815 22.4612 41.8132 22.7905C42.1452 23.1195 42.3112 23.5257 42.3112 24.009C42.3112 24.492 42.1452 24.8952 41.8132 25.2185C41.4815 25.5418 41.0757 25.7035 40.5957 25.7035H16.2152ZM16.2152 34.622C15.7345 34.622 15.3305 34.4573 15.0032 34.128C14.6758 33.799 14.5122 33.3908 14.5122 32.9035C14.5122 32.4165 14.6758 32.0113 15.0032 31.688C15.3305 31.365 15.7345 31.2035 16.2152 31.2035H40.5957C41.0757 31.2035 41.4815 31.368 41.8132 31.697C42.1452 32.026 42.3112 32.4342 42.3112 32.9215C42.3112 33.4085 42.1452 33.8137 41.8132 34.137C41.4815 34.4603 41.0757 34.622 40.5957 34.622H16.2152ZM7.38967 16.7965C6.93201 16.7965 6.53617 16.6265 6.20217 16.2865C5.86817 15.9465 5.70117 15.5387 5.70117 15.063C5.70117 14.5907 5.86817 14.1918 6.20217 13.8665C6.53617 13.5408 6.94034 13.378 7.41467 13.378C7.88901 13.378 8.28984 13.5428 8.61717 13.8725C8.94417 14.2022 9.10767 14.6107 9.10767 15.098C9.10767 15.5537 8.94201 15.9507 8.61067 16.289C8.27934 16.6273 7.87234 16.7965 7.38967 16.7965ZM7.38967 25.7035C6.93201 25.7035 6.53617 25.5335 6.20217 25.1935C5.86817 24.8535 5.70117 24.4423 5.70117 23.96C5.70117 23.49 5.86817 23.0953 6.20217 22.776C6.53617 22.4563 6.94034 22.2965 7.41467 22.2965C7.88901 22.2965 8.28984 22.4583 8.61717 22.782C8.94417 23.1057 9.10767 23.5067 9.10767 23.985C9.10767 24.4507 8.94201 24.8535 8.61067 25.1935C8.27934 25.5335 7.87234 25.7035 7.38967 25.7035ZM7.38967 34.61C6.93201 34.61 6.53617 34.44 6.20217 34.1C5.86817 33.76 5.70117 33.352 5.70117 32.876C5.70117 32.4037 5.86817 32.0048 6.20217 31.6795C6.53617 31.3542 6.94034 31.1915 7.41467 31.1915C7.88901 31.1915 8.28984 31.3563 8.61717 31.686C8.94417 32.0153 9.10767 32.4237 9.10767 32.911C9.10767 33.3667 8.94201 33.7637 8.61067 34.102C8.27934 34.4407 7.87234 34.61 7.38967 34.61Z" fill="black"/>
</svg>
