<svg width="48" height="48" fill="none" xmlns="http://www.w3.org/2000/svg"><path d="M16.215 16.797c-.48 0-.884-.165-1.212-.494a1.667 1.667 0 01-.49-1.225c0-.486.163-.892.49-1.215a1.657 1.657 0 011.212-.485h24.38c.48 0 .886.165 1.218.494.332.329.498.737.498 1.225 0 .487-.166.892-.498 1.215a1.679 1.679 0 01-1.217.485h-24.38zm0 8.906c-.48 0-.884-.164-1.212-.494a1.66 1.66 0 01-.49-1.218c0-.483.163-.886.49-1.21a1.657 1.657 0 011.212-.484h24.38c.48 0 .886.164 1.218.494.332.328.498.735.498 1.218s-.166.886-.498 1.21a1.678 1.678 0 01-1.217.484h-24.38zm0 8.919c-.48 0-.884-.165-1.212-.494a1.667 1.667 0 01-.49-1.224c0-.488.163-.893.49-1.216a1.658 1.658 0 011.212-.485h24.38c.48 0 .886.165 1.218.494.332.329.498.737.498 1.225 0 .486-.166.892-.498 1.215a1.678 1.678 0 01-1.217.485h-24.38zM7.39 16.797a1.61 1.61 0 01-1.188-.51 1.684 1.684 0 01-.5-1.224c0-.472.166-.871.5-1.197a1.673 1.673 0 011.213-.488c.474 0 .875.165 1.202.495.327.33.49.738.49 1.225 0 .456-.165.853-.496 1.191a1.643 1.643 0 01-1.221.508zm0 8.906a1.61 1.61 0 01-1.188-.51 1.696 1.696 0 01-.5-1.233c0-.47.166-.865.5-1.184a1.69 1.69 0 011.213-.48c.474 0 .875.162 1.202.486.327.324.49.725.49 1.203 0 .466-.165.869-.496 1.209a1.64 1.64 0 01-1.221.51zm0 8.907a1.61 1.61 0 01-1.188-.51 1.684 1.684 0 01-.5-1.224c0-.472.166-.871.5-1.196a1.674 1.674 0 011.213-.488c.474 0 .875.164 1.202.494.327.33.49.738.49 1.225 0 .456-.165.853-.496 1.191a1.641 1.641 0 01-1.221.508z" fill="#000"/></svg>