<svg width="48" height="48" viewBox="0 0 48 48" fill="none" xmlns="http://www.w3.org/2000/svg">
<path d="M21.9001 22.851L18.8436 19.7945C18.7279 19.6785 18.4576 19.6998 18.0326 19.8585C17.6073 20.0172 17.1979 20.1632 16.8046 20.2965C16.4109 20.4298 16.1419 20.4922 15.9976 20.4835C15.8529 20.4748 16.0059 20.2492 16.4566 19.8065C16.1089 20.1465 15.9351 20.5443 15.9351 21C15.9351 21.4557 16.1049 21.8575 16.4446 22.2055L20.6946 26.4435C21.0403 26.7835 21.4436 26.9535 21.9046 26.9535C22.3653 26.9535 22.7656 26.7835 23.1056 26.4435L32.2271 17.9435C32.2271 17.5212 32.1898 17.0943 32.1151 16.663C32.0408 16.232 31.8483 15.8602 31.5376 15.5475C31.2026 15.2135 30.8051 15.0465 30.3451 15.0465C29.8848 15.0465 29.4846 15.2165 29.1446 15.5565L21.9001 22.851ZM1.7251 42.4425V39.299H44.7151C45.1571 39.299 45.5276 39.4517 45.8266 39.757C46.1256 40.062 46.2751 40.4367 46.2751 40.881C46.2751 41.325 46.1256 41.6962 45.8266 41.9945C45.5276 42.2932 45.1571 42.4425 44.7151 42.4425H1.7251ZM7.1076 36.299C6.1876 36.299 5.38993 35.9612 4.7146 35.2855C4.03893 34.6102 3.7011 33.8125 3.7011 32.8925V9.10749C3.7011 8.18416 4.03893 7.38366 4.7146 6.70599C5.38993 6.02799 6.1876 5.689 7.1076 5.689H40.8926C41.8159 5.689 42.6164 6.02799 43.2941 6.70599C43.9721 7.38366 44.3111 8.18416 44.3111 9.10749V32.8925C44.3111 33.8125 43.9721 34.6102 43.2941 35.2855C42.6164 35.9612 41.8159 36.299 40.8926 36.299H7.1076ZM7.1076 32.8925H40.8926V9.10749H7.1076V32.8925Z" fill="black"/>
</svg>
