<svg width="46" height="33" fill="none" xmlns="http://www.w3.org/2000/svg"><path d="M.625 27.431c0-1.225.315-2.333.944-3.325.63-.992 1.504-1.738 2.623-2.238 2.45-1.066 4.661-1.837 6.635-2.311a25.981 25.981 0 016.097-.712 25.9 25.9 0 016.09.706c1.953.47 4.154 1.243 6.604 2.318 1.117.489 1.999 1.23 2.646 2.223.647.992.971 2.106.971 3.34v1.616c0 .936-.333 1.738-.998 2.405a3.29 3.29 0 01-2.42 1.002H4.032c-.937 0-1.739-.334-2.406-1.002-.667-.667-1.001-1.469-1.001-2.405v-1.616zm41.343 5.024h-6.625c.23-.556.437-1.11.619-1.661a5.531 5.531 0 00.273-1.746v-1.544c0-2.14-.483-3.89-1.45-5.249-.967-1.359-2.46-2.504-4.481-3.434 2.26.274 4.412.653 6.457 1.135 2.046.483 3.702 1.054 4.968 1.713 1.124.633 2.013 1.447 2.666 2.443.653.995.98 2.122.98 3.38v1.556c0 .936-.334 1.738-1.001 2.405-.667.668-1.469 1.002-2.406 1.002zm-25.041-16.66c-2.25 0-4.087-.713-5.51-2.136-1.425-1.424-2.136-3.262-2.136-5.514 0-2.252.712-4.09 2.136-5.514 1.424-1.424 3.26-2.136 5.507-2.136 2.248 0 4.085.713 5.514 2.137 1.428 1.424 2.142 3.26 2.142 5.507 0 2.256-.713 4.096-2.14 5.52-1.425 1.423-3.263 2.135-5.513 2.135zm18.44-7.656c0 2.248-.714 4.086-2.142 5.514-1.427 1.428-3.266 2.141-5.517 2.141-.375 0-.783-.027-1.224-.08a5.689 5.689 0 01-1.247-.293c.816-.85 1.432-1.892 1.849-3.127.417-1.236.625-2.618.625-4.147 0-1.529-.209-2.88-.627-4.055A10.514 10.514 0 0025.237.868a10.49 10.49 0 011.234-.267c.448-.07.86-.106 1.237-.106 2.248 0 4.086.715 5.515 2.143 1.429 1.428 2.144 3.262 2.144 5.501zM4.032 29.048h25.785V27.48c0-.529-.159-1.04-.476-1.537-.316-.495-.708-.842-1.175-1.04-2.368-1.043-4.357-1.743-5.966-2.102-1.61-.359-3.368-.538-5.276-.538-1.892 0-3.657.18-5.295.538-1.638.359-3.637 1.06-5.997 2.103-.46.196-.84.542-1.144 1.038-.304.496-.457 1.009-.457 1.538v1.568zm12.89-16.528c1.267 0 2.314-.413 3.141-1.238.828-.825 1.242-1.87 1.242-3.136 0-1.265-.413-2.31-1.238-3.136-.826-.826-1.87-1.24-3.136-1.24-1.265 0-2.31.412-3.137 1.236-.825.824-1.239 1.868-1.239 3.131 0 1.267.412 2.314 1.236 3.141.824.828 1.868 1.242 3.131 1.242z" fill="#000"/></svg>