<svg width="46" height="33" viewBox="0 0 46 33" fill="none" xmlns="http://www.w3.org/2000/svg">
<path d="M0.625 27.4315C0.625 26.2065 0.939667 25.098 1.569 24.106C2.19867 23.1137 3.07317 22.3678 4.1925 21.8685C6.64183 20.8018 8.85333 20.0312 10.827 19.5565C12.8007 19.0818 14.833 18.8445 16.924 18.8445C19.0303 18.8445 21.0602 19.0798 23.0135 19.5505C24.9668 20.0212 27.1682 20.7938 29.6175 21.8685C30.7345 22.3578 31.6167 23.0988 32.264 24.0915C32.9113 25.0842 33.235 26.1975 33.235 27.4315V29.048C33.235 29.9843 32.9022 30.7862 32.2365 31.4535C31.5712 32.1208 30.7645 32.4545 29.8165 32.4545H4.0315C3.09483 32.4545 2.293 32.1208 1.626 31.4535C0.958667 30.7862 0.625 29.9843 0.625 29.048V27.4315ZM41.9685 32.4545H35.3435C35.5738 31.8985 35.78 31.345 35.962 30.794C36.144 30.243 36.235 29.661 36.235 29.048V27.5035C36.235 25.3635 35.7517 23.614 34.785 22.255C33.8183 20.896 32.3245 19.7512 30.3035 18.8205C32.5635 19.0952 34.7162 19.4738 36.7615 19.9565C38.8068 20.4392 40.4628 21.0098 41.7295 21.6685C42.8532 22.3018 43.7417 23.1163 44.395 24.112C45.0483 25.1073 45.375 26.2338 45.375 27.4915V29.048C45.375 29.9843 45.0413 30.7862 44.374 31.4535C43.707 32.1208 42.9052 32.4545 41.9685 32.4545ZM16.927 15.7945C14.677 15.7945 12.8402 15.0825 11.4165 13.6585C9.9925 12.2348 9.2805 10.397 9.2805 8.14499C9.2805 5.89332 9.99267 4.05549 11.417 2.63149C12.841 1.20749 14.6768 0.495483 16.9245 0.495483C19.1718 0.495483 21.0095 1.20765 22.4375 2.63199C23.8655 4.05599 24.5795 5.89165 24.5795 8.13899C24.5795 10.395 23.8665 12.2348 22.4405 13.6585C21.0145 15.0825 19.1767 15.7945 16.927 15.7945ZM35.3665 8.13899C35.3665 10.387 34.6527 12.2248 33.225 13.6525C31.7977 15.0805 29.9587 15.7945 27.708 15.7945C27.333 15.7945 26.925 15.7675 26.484 15.7135C26.0433 15.6595 25.6277 15.5618 25.237 15.4205C26.053 14.5712 26.6693 13.5288 27.086 12.2935C27.5027 11.0582 27.711 9.67598 27.711 8.14698C27.711 6.61798 27.502 5.26648 27.084 4.09248C26.666 2.91882 26.0503 1.84398 25.237 0.867984C25.6117 0.760984 26.023 0.672153 26.471 0.601486C26.9187 0.53082 27.331 0.495483 27.708 0.495483C29.9557 0.495483 31.794 1.20965 33.223 2.63799C34.652 4.06599 35.3665 5.89965 35.3665 8.13899ZM4.0315 29.048H29.8165V27.4795C29.8165 26.9512 29.6582 26.4392 29.3415 25.9435C29.0248 25.4475 28.6332 25.1008 28.1665 24.9035C25.7982 23.8605 23.8093 23.1597 22.2 22.801C20.5907 22.4423 18.832 22.263 16.924 22.263C15.032 22.263 13.267 22.4423 11.629 22.801C9.99067 23.1597 7.9915 23.8605 5.6315 24.9035C5.17283 25.0998 4.7915 25.446 4.4875 25.942C4.1835 26.4383 4.0315 26.9508 4.0315 27.4795V29.048ZM16.922 12.5195C18.1887 12.5195 19.2357 12.107 20.063 11.282C20.8907 10.4567 21.3045 9.41148 21.3045 8.14648C21.3045 6.88148 20.8918 5.83599 20.0665 5.00999C19.2415 4.18365 18.1965 3.77048 16.9315 3.77048C15.6662 3.77048 14.6205 4.18249 13.7945 5.00649C12.9685 5.83049 12.5555 6.87398 12.5555 8.13698C12.5555 9.40365 12.9673 10.4508 13.791 11.2785C14.615 12.1058 15.6587 12.5195 16.922 12.5195Z" fill="black"/>
</svg>
