<svg width="16" height="16" fill="none" xmlns="http://www.w3.org/2000/svg"><path d="M2.567 10.29V4c0-.484.111-.903.333-1.255.222-.352.558-.64 1.009-.862.45-.222 1.018-.386 1.7-.493A15.64 15.64 0 018 1.23c.956 0 1.775.05 2.458.152.683.101 1.245.263 1.686.485.44.222.767.507.977.855.211.349.316.775.316 1.278v6.29a2.43 2.43 0 01-.709 1.763 2.388 2.388 0 01-1.736.741l.434.433a.518.518 0 01.122.611c-.095.23-.271.345-.528.345a.573.573 0 01-.207-.037.494.494 0 01-.181-.125l-1.223-1.219H6.592l-1.22 1.22a.53.53 0 01-.39.161.529.529 0 01-.524-.345.51.51 0 01.117-.61l.433-.434a2.382 2.382 0 01-1.734-.742 2.433 2.433 0 01-.707-1.762zM8 2.37c-1.333 0-2.294.085-2.883.257-.589.173-1.011.42-1.267.742h8.315c-.2-.3-.62-.542-1.258-.725C10.27 2.461 9.3 2.37 8 2.37zM3.703 6.951h3.864V4.37H3.703v2.583zm7.214 1H3.703h8.595-1.381zm-2.35-1h3.73V4.37h-3.73v2.583zm-2.963 3.814a.886.886 0 00.648-.267.881.881 0 00.268-.65.883.883 0 00-.268-.648.885.885 0 00-.65-.268c-.255 0-.47.09-.648.268a.889.889 0 00-.267.65c0 .255.089.47.267.648a.884.884 0 00.65.267zm4.797 0a.886.886 0 00.648-.267.88.88 0 00.269-.65.883.883 0 00-.269-.648.885.885 0 00-.65-.268c-.254 0-.47.09-.648.268a.889.889 0 00-.267.65c0 .255.09.47.267.648a.884.884 0 00.65.267zm-5.317.984h5.833c.389 0 .716-.143.982-.43.266-.285.399-.629.399-1.03V7.953H3.703v2.337c0 .401.133.745.399 1.03.265.287.593.43.982.43zM8 3.37h4.165H3.85 8z" fill="#000"/></svg>