<svg width="16" height="16" fill="none" xmlns="http://www.w3.org/2000/svg"><path d="M7.028 9.799l-1.134 5.15a.567.567 0 01-.559.453.557.557 0 01-.448-.207.52.52 0 01-.118-.462l1.904-9.717c.056-.277.188-.492.398-.643.209-.15.43-.226.663-.226.23 0 .446.052.648.156.203.104.368.254.495.451l.646 1.067c.212.355.495.667.852.934.356.267.772.476 1.248.626v-.877a.37.37 0 01.111-.268.36.36 0 01.266-.113.36.36 0 01.266.113.37.37 0 01.111.268v8.52a.363.363 0 01-.11.266.363.363 0 01-.267.111.363.363 0 01-.266-.11.363.363 0 01-.11-.267V8.497a4.997 4.997 0 01-1.547-.628c-.488-.3-.927-.67-1.316-1.112l-.459 2.305 1.235 1.172a.543.543 0 01.134.2c.027.07.04.144.04.219v4.204a.528.528 0 01-.544.544.527.527 0 01-.544-.544v-3.542L7.028 9.799zM4.317 8.64l-.715-.142a.484.484 0 01-.35-.236.597.597 0 01-.085-.423l.5-2.617c.06-.34.241-.603.54-.787.3-.184.629-.242.986-.173a.517.517 0 01.345.237.55.55 0 01.091.411l-.645 3.28a.529.529 0 01-.24.361.566.566 0 01-.427.091zm4.517-5.252c-.347 0-.644-.124-.89-.374a1.223 1.223 0 01-.37-.89c0-.347.122-.645.369-.893a1.21 1.21 0 01.89-.372c.347 0 .644.124.89.372.248.248.371.546.371.892 0 .345-.123.642-.37.891-.246.25-.543.374-.89.374z" fill="#000"/></svg>