<svg width="16" height="16" fill="none" xmlns="http://www.w3.org/2000/svg"><path d="M4.373 15.433a1.1 1.1 0 01-.806-.332 1.093 1.093 0 01-.333-.804V1.702c0-.307.113-.574.339-.8.226-.226.493-.339.8-.339h7.22c.317 0 .586.11.808.333.221.221.332.49.332.806v2.411c.2.045.368.149.502.31a.83.83 0 01.202.545v1.229a.87.87 0 01-.202.57.881.881 0 01-.502.311v7.22c0 .315-.11.582-.332.803a1.1 1.1 0 01-.807.332h-7.22zm-.004-1.131h7.229V1.698H4.369v12.604zm1.634-3.64h3.994a.644.644 0 00.475-.191.645.645 0 00.19-.474V8.883a.247.247 0 00-.064-.16.24.24 0 00-.152-.09.66.66 0 01-.325-.245A.654.654 0 019.996 8c0-.142.042-.271.125-.388a.66.66 0 01.325-.245.253.253 0 00.15-.086.237.237 0 00.067-.164V6.003a.645.645 0 00-.191-.474.644.644 0 00-.475-.192H6.003a.644.644 0 00-.474.192.645.645 0 00-.191.474v1.114c0 .055.021.109.064.16a.24.24 0 00.152.09.659.659 0 01.325.245.653.653 0 01.125.388.653.653 0 01-.125.388.659.659 0 01-.325.245.253.253 0 00-.15.086.237.237 0 00-.066.164v1.114c0 .188.063.346.19.474a.643.643 0 00.475.192zm1.997-1a.323.323 0 01-.233-.097.318.318 0 01-.1-.236.31.31 0 01.1-.231A.323.323 0 018 9c.09 0 .167.033.234.099a.322.322 0 010 .466.323.323 0 01-.234.098zm0-1.329a.32.32 0 01-.233-.1.32.32 0 010-.466.32.32 0 01.467 0 .32.32 0 010 .466.32.32 0 01-.234.1zM8 7a.322.322 0 01-.233-.099.314.314 0 01-.1-.23c0-.092.033-.17.1-.236A.323.323 0 018 6.337c.09 0 .167.033.234.098.066.066.1.144.1.236a.313.313 0 01-.1.231A.323.323 0 018 7z" fill="#000"/></svg>