<svg width="16" height="16" fill="none" xmlns="http://www.w3.org/2000/svg"><path d="M14.276 14.034a.555.555 0 01-.407-.17l-1.709-1.708H5.084c-.315 0-.583-.111-.804-.333a1.101 1.101 0 01-.332-.807V9.683h7.282c.312 0 .58-.11.802-.332a1.09 1.09 0 00.333-.804v-4.61H13.7c.316 0 .585.11.806.332.222.222.333.49.333.807v8.39c0 .177-.06.316-.18.417a.587.587 0 01-.382.15zM2.302 8.658l1.11-1.11h6.818V2.29H2.302v6.368zm-.572 1.944a.592.592 0 01-.388-.152.515.515 0 01-.18-.416V2.29c0-.317.111-.586.333-.807.222-.222.49-.333.807-.333h7.928c.312 0 .58.11.802.333.222.221.333.49.333.807v5.257c0 .315-.11.583-.333.804-.223.221-.49.332-.802.332H3.877l-1.745 1.745a.57.57 0 01-.402.173z" fill="#000"/></svg>