<svg width="32" height="46" fill="none" xmlns="http://www.w3.org/2000/svg"><path d="M4.12 45.299c-.949 0-1.756-.331-2.42-.995a3.279 3.279 0 01-1-2.412V4.108c0-.923.34-1.723 1.017-2.401C2.396 1.028 3.196.689 4.12.689h21.66c.949 0 1.756.333 2.421.998.665.665.998 1.472.998 2.42v7.233a2.68 2.68 0 011.506.93c.404.485.606 1.03.606 1.635v3.685c0 .65-.202 1.22-.606 1.71-.404.49-.906.802-1.506.934v21.658c0 .945-.333 1.75-.998 2.412-.665.663-1.472.995-2.42.995H4.12zm-.012-3.395h21.685V4.096H4.108v37.81zm4.901-10.916h11.982c.566 0 1.04-.192 1.423-.575.383-.383.574-.858.574-1.422V25.65a.74.74 0 00-.194-.481.722.722 0 00-.456-.269c-.4-.14-.725-.386-.975-.736A1.96 1.96 0 0120.988 23c0-.425.125-.813.375-1.164.25-.35.575-.596.975-.736a.76.76 0 00.45-.257c.134-.146.2-.31.2-.493v-3.34c0-.566-.191-1.04-.574-1.423-.383-.383-.857-.575-1.423-.575H9.01c-.566 0-1.04.192-1.423.575-.383.383-.574.858-.574 1.422v3.341a.74.74 0 00.194.481c.13.154.281.244.456.269.4.14.725.386.975.736s.375.739.375 1.164c0 .425-.125.813-.375 1.164-.25.35-.575.596-.975.736a.76.76 0 00-.45.257.712.712 0 00-.2.493v3.34c0 .566.192 1.04.574 1.423.383.383.857.575 1.423.575zm5.991-3a.969.969 0 01-.7-.294.953.953 0 01-.3-.706c0-.267.1-.498.3-.694A.969.969 0 0115 26c.267 0 .5.099.7.297.2.197.3.428.3.691 0 .275-.1.51-.3.706a.969.969 0 01-.7.294zM15 24a.96.96 0 01-.7-.3.96.96 0 01-.3-.7c0-.267.1-.5.3-.7.2-.2.433-.3.7-.3.267 0 .5.1.7.3.2.2.3.433.3.7 0 .267-.1.5-.3.7-.2.2-.433.3-.7.3zm0-4a.965.965 0 01-.7-.297.943.943 0 01-.3-.691c0-.275.1-.51.3-.706a.969.969 0 01.7-.294c.267 0 .5.098.7.294.2.196.3.431.3.706a.94.94 0 01-.3.694.969.969 0 01-.7.294z" fill="#000"/></svg>