<svg width="48" height="48" fill="none" xmlns="http://www.w3.org/2000/svg"><path d="M16.317 35.511L24 30.918l7.682 4.643-2.064-8.697 6.757-5.88-8.909-.777L24 12l-3.467 8.17-8.908.764 6.756 5.869-2.064 8.709zM24 34.885l-9.324 5.623a1.7 1.7 0 01-1.889-.062 1.723 1.723 0 01-.591-.739c-.128-.302-.155-.644-.081-1.026l2.462-10.623-8.224-7.174c-.298-.258-.48-.548-.547-.871a2.024 2.024 0 01.025-.945c.075-.306.247-.565.516-.776a1.8 1.8 0 01.976-.367l10.873-.95 4.212-10.036c.15-.348.376-.607.678-.777A1.85 1.85 0 0124 5.907c.307 0 .611.085.913.255.303.17.53.43.678.777l4.212 10.036 10.886.95c.373.033.694.156.963.367.27.211.442.47.516.776.083.307.091.622.025.945-.066.323-.248.613-.547.87l-8.223 7.175 2.462 10.623c.074.382.047.724-.081 1.026a1.723 1.723 0 01-1.499 1.056 1.657 1.657 0 01-.981-.255L24 34.886z" fill="#000"/></svg>