<svg width="24" height="24" fill="none" xmlns="http://www.w3.org/2000/svg"><path d="M4.12 3.345h3.5c.183 0 .31.054.415.153a.94.94 0 01.23.354l.052.163.665 3.013a1.5 1.5 0 01-.01.564.655.655 0 01-.192.334l-.007.006-2.517 2.483-.28.275.2.336c.427.717.881 1.39 1.361 2.016.483.63 1.02 1.228 1.608 1.795a17.785 17.785 0 001.923 1.724c.675.52 1.381.974 2.117 1.364l.33.175.261-.268 2.406-2.468.01-.01a.975.975 0 01.442-.29c.13-.038.26-.052.391-.043l.132.018 2.82.624a1 1 0 01.405.212l.1.102a.737.737 0 01.173.494v3.41a.724.724 0 01-.218.55.734.734 0 01-.55.218c-1.875 0-3.796-.45-5.765-1.365-1.968-.914-3.799-2.215-5.492-3.908-1.587-1.587-2.83-3.296-3.734-5.127l-.177-.368C3.802 7.909 3.35 5.99 3.35 4.119a.76.76 0 01.123-.441l.095-.115a.726.726 0 01.55-.218zm-.054 1.23c.031.713.143 1.462.333 2.243.192.788.492 1.658.896 2.607l.289.678.523-.52 2.02-2.008.193-.192-.057-.267-.569-2.667-.085-.395H4.044l.022.521zm15.88 11.802l-.398-.082-2.485-.515-.272-.055-.192.2-1.963 2.057-.482.504.633.295a12.61 12.61 0 002.258.788c.81.204 1.603.326 2.376.365l.525.026v-3.583z" fill="#000" stroke="#000"/></svg>