<svg width="24" height="24" fill="none" xmlns="http://www.w3.org/2000/svg"><path d="M12 2.345c2.024 0 3.803.704 5.355 2.133 1.524 1.401 2.3 3.285 2.3 5.705 0 .985-.217 1.97-.659 2.958a15.667 15.667 0 01-1.708 2.912 23.18 23.18 0 01-2.253 2.62 54.98 54.98 0 01-2.302 2.186l-.006.005-.004.005a.822.822 0 01-.318.188c-.146.047-.283.069-.413.069s-.263-.022-.402-.068a.766.766 0 01-.3-.183l-.009-.009-.01-.008a52.536 52.536 0 01-2.306-2.184 23.172 23.172 0 01-2.253-2.621 15.539 15.539 0 01-1.705-2.911c-.44-.989-.656-1.974-.656-2.96 0-2.42.776-4.303 2.297-5.704C8.198 3.05 9.976 2.345 12 2.345zm0 .709c-1.935 0-3.59.669-4.932 2.003-1.35 1.342-2.014 3.065-2.014 5.126 0 1.42.594 2.958 1.698 4.603 1.105 1.646 2.745 3.475 4.907 5.486l.337.313.34-.309c2.213-2.007 3.87-3.838 4.953-5.49 1.079-1.648 1.657-3.187 1.657-4.603 0-2.06-.665-3.784-2.014-5.126v-.001C15.59 3.722 13.935 3.054 12 3.054zm-.002 5.648c.366 0 .664.123.92.379.257.255.38.551.38.917s-.123.663-.378.917a1.234 1.234 0 01-.918.377c-.367 0-.663-.123-.917-.376a1.224 1.224 0 01-.377-.913c0-.322.094-.59.288-.824l.089-.098a1.22 1.22 0 01.913-.379z" fill="#000" stroke="#000"/></svg>