<svg width="24" height="24" fill="none" xmlns="http://www.w3.org/2000/svg"><path d="M3.054 5.742v13.204h17.892V6.14l-.775.51-7.956 5.238c-.06.031-.113.057-.158.075a.196.196 0 01-.057.006.193.193 0 01-.057-.006 1.667 1.667 0 01-.159-.075l-7.73-5.091v-.4l7.673 5.026.273.18.273-.18 8.347-5.45 1.01-.66c.017.077.025.158.025.242v12.892c0 .321-.112.595-.361.843s-.524.36-.848.36H3.554c-.322 0-.595-.112-.843-.36l-.087-.094a1.116 1.116 0 01-.273-.749V5.554c0-.089.009-.174.026-.255l.677.443zm.5-1.397h16.892c.324 0 .598.113.847.362h0c.11.11.192.225.25.347H2.462c.059-.122.14-.238.25-.348h0c.249-.249.522-.361.843-.361z" fill="#000" stroke="#000"/></svg>