<svg width="48" height="48" viewBox="0 0 48 48" fill="none" xmlns="http://www.w3.org/2000/svg">
<path d="M16.3174 35.511L23.9999 30.9185L31.6824 35.561L29.6184 26.864L36.3749 20.9835L27.4664 20.2075L23.9999 11.999L20.5334 20.1695L11.6249 20.9335L18.3814 26.802L16.3174 35.511ZM23.9999 34.885L14.6759 40.5085C14.3616 40.6991 14.0344 40.7841 13.6944 40.7635C13.3547 40.7428 13.0522 40.6371 12.7869 40.4465C12.5216 40.2561 12.3246 40.0096 12.1959 39.707C12.0676 39.4046 12.0406 39.0628 12.1149 38.6815L14.5769 28.0575L6.3534 20.8835C6.05474 20.6265 5.8724 20.3363 5.8064 20.013C5.7404 19.69 5.74874 19.3751 5.8314 19.0685C5.90607 18.7618 6.07807 18.503 6.3474 18.292C6.6164 18.0806 6.94157 17.9583 7.3229 17.925L18.1964 16.975L22.4084 6.93897C22.5577 6.5913 22.7837 6.33247 23.0864 6.16247C23.3887 5.99247 23.6932 5.90747 23.9999 5.90747C24.3066 5.90747 24.6111 5.99247 24.9134 6.16247C25.2161 6.33247 25.4421 6.5913 25.5914 6.93897L29.8034 16.975L40.6889 17.925C41.0622 17.9583 41.3834 18.0806 41.6524 18.292C41.9217 18.503 42.0937 18.7618 42.1684 19.0685C42.2511 19.3751 42.2594 19.69 42.1934 20.013C42.1274 20.3363 41.9451 20.6265 41.6464 20.8835L33.4229 28.0575L35.8849 38.6815C35.9592 39.0628 35.9322 39.4046 35.8039 39.707C35.6752 40.0096 35.4782 40.2561 35.2129 40.4465C34.9476 40.6371 34.6451 40.7428 34.3054 40.7635C33.9654 40.7841 33.6382 40.6991 33.3239 40.5085L23.9999 34.885Z" fill="black"/>
</svg>
