<svg width="48" height="48" fill="none" xmlns="http://www.w3.org/2000/svg"><path d="M9.107 44.299c-.92 0-1.717-.338-2.393-1.014-.675-.675-1.013-1.472-1.013-2.392V10.107c0-.924.338-1.724 1.013-2.402.676-.678 1.473-1.017 2.393-1.017h3.143V5.397c0-.479.166-.883.498-1.213.332-.33.736-.495 1.212-.495a1.7 1.7 0 011.239.495c.336.33.504.734.504 1.213v1.292h16.593V5.397c0-.479.167-.883.499-1.213.332-.33.736-.495 1.211-.495a1.7 1.7 0 011.24.495c.336.33.504.734.504 1.213v1.292h3.142c.924 0 1.724.339 2.402 1.017.678.678 1.017 1.478 1.017 2.401v9.443c0 .48-.167.885-.5 1.212a1.682 1.682 0 01-1.225.491 1.63 1.63 0 01-1.21-.494 1.67 1.67 0 01-.484-1.216V19.5H9.107v21.392h14.13c.48 0 .885.165 1.217.494.332.329.498.735.498 1.218 0 .484-.166.887-.498 1.21a1.679 1.679 0 01-1.217.485H9.107zm0-27.799h29.785v-6.393H9.107V16.5zm18.845 26.096v-4.014c0-.21.04-.413.118-.609a1.77 1.77 0 01.392-.573L39.03 26.862c.321-.326.677-.56 1.07-.705a3.394 3.394 0 011.181-.217c.416 0 .82.081 1.21.243a3.23 3.23 0 011.06.717l1.85 1.85c.315.316.545.668.69 1.056.147.388.22.775.22 1.163 0 .4-.081.8-.243 1.203a3.242 3.242 0 01-.721 1.086L34.85 43.8a1.66 1.66 0 01-.573.386 1.7 1.7 0 01-.609.112h-4.014c-.48 0-.885-.164-1.212-.491a1.647 1.647 0 01-.491-1.212zm3.18-1.476h1.9l6.013-6.062-.9-.951-.95-.901-6.064 6.01v1.904zm7.013-7.014l-.95-.9 1.85 1.85-.9-.95z" fill="#000"/></svg>