<svg width="48" height="48" viewBox="0 0 48 48" fill="none" xmlns="http://www.w3.org/2000/svg">
<path d="M9.10743 44.299C8.18743 44.299 7.38976 43.9612 6.71443 43.2855C6.03876 42.6102 5.70093 41.8125 5.70093 40.8925V10.1075C5.70093 9.18419 6.03876 8.38369 6.71443 7.70602C7.38976 7.02802 8.18743 6.68903 9.10743 6.68903H12.2499V5.39652C12.2499 4.91819 12.4159 4.51402 12.7479 4.18402C13.0803 3.85402 13.4843 3.68903 13.9599 3.68903C14.4496 3.68903 14.8626 3.85402 15.1989 4.18402C15.5353 4.51402 15.7034 4.91819 15.7034 5.39652V6.68903H32.2964V5.39652C32.2964 4.91819 32.4626 4.51402 32.7949 4.18402C33.1269 3.85402 33.5308 3.68903 34.0064 3.68903C34.4964 3.68903 34.9094 3.85402 35.2454 4.18402C35.5818 4.51402 35.7499 4.91819 35.7499 5.39652V6.68903H38.8924C39.8158 6.68903 40.6163 7.02802 41.2939 7.70602C41.9719 8.38369 42.3109 9.18419 42.3109 10.1075V19.55C42.3109 20.0307 42.1441 20.4347 41.8104 20.762C41.4764 21.0897 41.0683 21.2535 40.5859 21.2535C40.1033 21.2535 39.7003 21.0885 39.3769 20.7585C39.0539 20.4289 38.8924 20.0235 38.8924 19.5425V19.5H9.10743V40.8925H23.2369C23.7166 40.8925 24.1224 41.057 24.4544 41.386C24.7861 41.715 24.9519 42.1212 24.9519 42.6045C24.9519 43.0879 24.7861 43.491 24.4544 43.814C24.1224 44.1374 23.7166 44.299 23.2369 44.299H9.10743ZM9.10743 16.5H38.8924V10.1075H9.10743V16.5ZM27.9519 42.5955V38.5815C27.9519 38.3722 27.9913 38.1694 28.0699 37.973C28.1486 37.777 28.2793 37.586 28.4619 37.4L39.0304 26.8615C39.3511 26.5362 39.7074 26.3014 40.0994 26.157C40.4914 26.0124 40.8854 25.94 41.2814 25.94C41.6974 25.94 42.1009 26.021 42.4919 26.183C42.8829 26.345 43.2359 26.584 43.5509 26.9L45.4009 28.75C45.7156 29.066 45.9459 29.418 46.0919 29.806C46.2379 30.1937 46.3109 30.5815 46.3109 30.9695C46.3109 31.3682 46.2299 31.7692 46.0679 32.1725C45.9059 32.5755 45.6656 32.9372 45.3469 33.2575L34.8509 43.801C34.6663 43.9837 34.4754 44.1124 34.2784 44.187C34.0818 44.2617 33.8788 44.299 33.6694 44.299H29.6554C29.1744 44.299 28.7703 44.1354 28.4429 43.808C28.1156 43.4807 27.9519 43.0765 27.9519 42.5955ZM31.1314 41.1195H33.0314L39.0454 35.058L38.1454 34.107L37.1954 33.2055L31.1314 39.2165V41.1195ZM38.1454 34.1055L37.1954 33.2055L39.0454 35.0555L38.1454 34.1055Z" fill="black"/>
</svg>
