<svg width="48" height="48" fill="none" xmlns="http://www.w3.org/2000/svg"><path d="M19.782 39.559l13.782-16.583H24.66l1.764-14.037-12.506 18.073h7.64l-1.776 12.547zm-2.045-9.224h-6.935c-.683 0-1.188-.303-1.513-.908-.325-.605-.28-1.193.134-1.765L26.777 2.616c.283-.39.636-.654 1.06-.792a1.79 1.79 0 011.271.056c.424.167.761.45 1.01.851.25.4.341.823.274 1.269L28.42 19.654h8.596c.733 0 1.248.323 1.544.969.297.646.222 1.251-.226 1.815L19.317 45.274a2.03 2.03 0 01-1.096.69 1.81 1.81 0 01-1.248-.128 2.069 2.069 0 01-.923-.849 1.877 1.877 0 01-.237-1.259l1.924-13.393z" fill="#000"/></svg>