<svg width="48" height="48" viewBox="0 0 48 48" fill="none" xmlns="http://www.w3.org/2000/svg">
<path d="M19.7815 39.5585L33.564 22.976H24.66L26.424 8.939L13.9175 27.012H21.5575L19.7815 39.5585ZM17.737 30.335H10.802C10.1187 30.335 9.61434 30.0323 9.28901 29.427C8.96367 28.822 9.00834 28.2337 9.42301 27.662L26.777 2.6165C27.0597 2.22584 27.413 1.96183 27.837 1.8245C28.261 1.68717 28.6848 1.70583 29.1085 1.8805C29.5325 2.04717 29.8692 2.33067 30.1185 2.731C30.3678 3.131 30.4592 3.554 30.3925 4L28.4185 19.6535H37.015C37.7483 19.6535 38.2632 19.9767 38.5595 20.623C38.8562 21.2693 38.7805 21.8743 38.3325 22.438L19.3165 45.274C19.0192 45.628 18.6538 45.8578 18.2205 45.9635C17.7872 46.0692 17.3713 46.0265 16.973 45.8355C16.5823 45.6525 16.2747 45.3697 16.05 44.987C15.8253 44.6047 15.7463 44.1852 15.813 43.7285L17.737 30.335Z" fill="black"/>
</svg>
