<svg width="48" height="48" fill="none" xmlns="http://www.w3.org/2000/svg"><path fill-rule="evenodd" clip-rule="evenodd" d="M41.46 14.24l-.28-.5a4.142 4.142 0 00-1.48-1.46L26.28 4.54a4 4 0 00-2-.54h-.58a4 4 0 00-2 .54L8.28 12.3a4 4 0 00-1.46 1.46l-.28.5a4 4 0 00-.54 2v15.5a4 4 0 00.54 2l.28.5c.36.599.861 1.1 1.46 1.46l13.44 7.74a3.84 3.84 0 002 .54h.56a3.998 3.998 0 002-.54L39.7 35.7a3.801 3.801 0 001.46-1.46l.3-.5a4.1 4.1 0 00.54-2v-15.5a3.999 3.999 0 00-.54-2zM23.7 8h.58L36 14.76l-12 6.92-12-6.92L23.7 8zM26 39l11.7-6.76.3-.5V18.22l-12 6.94V39z" fill="#000"/></svg>