<svg width="48" height="48" viewBox="0 0 48 48" fill="none" xmlns="http://www.w3.org/2000/svg">
<path d="M24.0104 44.299C21.2034 44.299 18.5658 43.766 16.0974 42.7C13.6288 41.634 11.4783 40.1861 9.64593 38.3565C7.81359 36.5271 6.36476 34.3785 5.29943 31.9105C4.23376 29.4425 3.70093 26.8055 3.70093 23.9995C3.70093 21.1931 4.23376 18.5563 5.29943 16.089C6.36476 13.6216 7.81359 11.4731 9.64593 9.64346C11.4783 7.8138 13.6293 6.36396 16.0989 5.29396C18.5683 4.22396 21.2068 3.68896 24.0144 3.68896C26.8224 3.68896 29.4588 4.22396 31.9234 5.29396C34.3884 6.36396 36.5363 7.81296 38.3669 9.64096C40.1976 11.4686 41.6459 13.617 42.7119 16.086C43.7779 18.5546 44.3109 21.1925 44.3109 23.9995C44.3109 26.8065 43.7783 29.444 42.7129 31.912C41.6479 34.3803 40.1996 36.5296 38.3679 38.36C36.5359 40.1906 34.3859 41.6381 31.9179 42.7025C29.4499 43.7668 26.8141 44.299 24.0104 44.299ZM21.8739 40.8425V36.7545C20.7073 36.7545 19.7278 36.3235 18.9354 35.4615C18.1434 34.5995 17.7474 33.5885 17.7474 32.4285V30.24L7.56943 20.062C7.40276 20.7286 7.28609 21.383 7.21943 22.025C7.15276 22.667 7.11943 23.3191 7.11943 23.9815C7.11943 28.2848 8.51776 32.0478 11.3144 35.2705C14.1114 38.4931 17.6313 40.3505 21.8739 40.8425ZM36.4794 35.4785C37.9374 33.8941 39.0374 32.1135 39.7794 30.1365C40.5214 28.1595 40.8924 26.1076 40.8924 23.981C40.8924 20.4733 39.9338 17.2885 38.0164 14.4265C36.0988 11.5645 33.5353 9.47079 30.3259 8.14546V9.03346C30.3259 10.1905 29.9254 11.1988 29.1244 12.0585C28.3231 12.9181 27.3441 13.348 26.1874 13.348H21.8739V17.6705C21.8739 18.2395 21.6489 18.7053 21.1989 19.068C20.7489 19.4306 20.2394 19.612 19.6704 19.612H15.5599V23.976H28.3784C28.9418 23.976 29.4071 24.1933 29.7744 24.628C30.1421 25.0623 30.3259 25.5606 30.3259 26.123V32.4285H32.4519C33.4106 32.4285 34.2551 32.7118 34.9854 33.2785C35.7158 33.8451 36.2138 34.5785 36.4794 35.4785Z" fill="black"/>
</svg>
