<svg width="48" height="48" fill="none" xmlns="http://www.w3.org/2000/svg"><path d="M24.01 44.299c-2.807 0-5.444-.533-7.913-1.599-2.468-1.066-4.619-2.514-6.451-4.344-1.832-1.829-3.281-3.977-4.347-6.446-1.065-2.468-1.598-5.105-1.598-7.91 0-2.807.533-5.444 1.598-7.911 1.066-2.467 2.515-4.616 4.347-6.446 1.832-1.83 3.983-3.279 6.453-4.349 2.47-1.07 5.108-1.605 7.915-1.605 2.808 0 5.445.535 7.91 1.605 2.464 1.07 4.612 2.519 6.443 4.347 1.83 1.828 3.279 3.976 4.345 6.445 1.066 2.469 1.599 5.107 1.599 7.914 0 2.806-.533 5.444-1.598 7.912S40.2 36.53 38.368 38.36c-1.832 1.83-3.982 3.278-6.45 4.343-2.468 1.064-5.104 1.596-7.908 1.596zm-2.136-3.456v-4.089c-1.167 0-2.146-.43-2.939-1.292-.792-.863-1.188-1.873-1.188-3.034V30.24L7.57 20.062a14.092 14.092 0 00-.35 1.963 18.93 18.93 0 00-.1 1.957c0 4.303 1.399 8.066 4.195 11.288 2.797 3.223 6.317 5.08 10.56 5.572zm14.605-5.365a16.269 16.269 0 003.3-5.341 17.377 17.377 0 001.113-6.156c0-3.508-.958-6.693-2.876-9.555-1.917-2.861-4.48-4.955-7.69-6.28v.887c0 1.158-.4 2.166-1.202 3.026-.8.86-1.78 1.289-2.937 1.289h-4.313v4.322c0 .57-.225 1.035-.675 1.398a2.37 2.37 0 01-1.529.544h-4.11v4.364h12.818c.564 0 1.03.217 1.396.652.368.434.552.933.552 1.495v6.305h2.126c.959 0 1.803.284 2.533.85a4.23 4.23 0 011.494 2.2z" fill="#000"/></svg>