<svg width="16" height="17" fill="none" xmlns="http://www.w3.org/2000/svg"><path d="M8.002 4.243c-.348 0-.646-.124-.892-.37a1.214 1.214 0 01-.37-.89c0-.347.122-.645.368-.893.245-.248.542-.372.89-.372s.645.123.892.37c.247.248.37.545.37.892 0 .346-.123.643-.368.891a1.207 1.207 0 01-.89.372zM6.165 14.655v-8.32A54.713 54.713 0 014.3 6.149a19.24 19.24 0 01-1.755-.285.56.56 0 01-.443-.685.5.5 0 01.271-.343.673.673 0 01.462-.056c.845.178 1.688.302 2.53.373.843.071 1.72.107 2.634.107.913 0 1.792-.036 2.635-.107a20.83 20.83 0 002.536-.373.684.684 0 01.46.059.49.49 0 01.267.34.561.561 0 01-.445.681c-.563.12-1.148.215-1.754.287-.606.073-1.226.135-1.86.188v8.32a.537.537 0 01-.55.544.53.53 0 01-.54-.544v-3.822H7.25v3.822a.534.534 0 01-.549.544.518.518 0 01-.386-.157.533.533 0 01-.152-.387z" fill="#000"/></svg>