<svg width="48" height="48" fill="none" xmlns="http://www.w3.org/2000/svg"><path d="M24.346 30.61c2.209 0 4.08-.7 5.613-2.098 1.533-1.399 2.3-3.098 2.3-5.096 0-1.738-.558-3.223-1.673-4.456-1.115-1.233-2.473-1.85-4.071-1.85-1.404 0-2.606.458-3.606 1.375s-1.5 2.027-1.5 3.33c0 .569.104 1.133.312 1.695.208.562.537 1.046.988 1.452.375.366.77.519 1.187.461.417-.058.756-.226 1.017-.506.26-.28.408-.612.443-.997.035-.384-.114-.737-.447-1.06a1.967 1.967 0 01-.375-.467 1.094 1.094 0 01-.125-.533c0-.459.185-.857.556-1.194.37-.337.885-.506 1.544-.506.767 0 1.425.31 1.975.931.55.62.825 1.41.825 2.369 0 1.173-.465 2.166-1.394 2.98-.93.813-2.098 1.22-3.506 1.22-1.698 0-3.14-.675-4.324-2.025-1.184-1.35-1.776-3.025-1.776-5.025a7.8 7.8 0 01.325-2.241 7.555 7.555 0 01.975-2.059c.233-.359.341-.74.325-1.144a1.54 1.54 0 00-.475-1.056c-.3-.3-.65-.45-1.05-.45s-.733.167-1 .5c-.7.9-1.233 1.9-1.6 3a10.68 10.68 0 00-.55 3.4c0 2.794.883 5.168 2.65 7.12 1.767 1.954 3.913 2.93 6.437 2.93zm-12.609 4.91a18.748 18.748 0 01-4.425-6.147A17.815 17.815 0 015.737 22c0-5.076 1.775-9.391 5.325-12.945 3.55-3.553 7.861-5.33 12.933-5.33 4.226 0 7.971 1.247 11.236 3.741 3.264 2.494 5.392 5.735 6.382 9.724l2.762 10.972c.15.538.055 1.023-.285 1.454-.339.431-.79.647-1.356.647h-4.459v6.593c0 .945-.332 1.75-.998 2.413-.665.663-1.472.994-2.42.994h-4.582v2.297c0 .48-.166.885-.5 1.212a1.682 1.682 0 01-1.225.491 1.63 1.63 0 01-1.208-.491 1.657 1.657 0 01-.485-1.212v-4c0-.481.163-.885.49-1.213a1.647 1.647 0 011.213-.49h6.297V28.56c0-.481.163-.885.49-1.212a1.647 1.647 0 011.213-.491h3.96l-2.201-8.821c-.8-3.194-2.538-5.808-5.214-7.842-2.676-2.033-5.71-3.05-9.1-3.05-4.128 0-7.637 1.429-10.527 4.287-2.89 2.858-4.334 6.34-4.334 10.449 0 2.12.434 4.141 1.304 6.062a15.772 15.772 0 003.698 5.1l.998.953v8.565c0 .48-.165.885-.494 1.212a1.66 1.66 0 01-1.218.491c-.484 0-.887-.164-1.21-.491a1.658 1.658 0 01-.485-1.212v-7.04z" fill="#000"/></svg>