<svg width="48" height="48" viewBox="0 0 48 48" fill="none" xmlns="http://www.w3.org/2000/svg">
<path d="M24.3458 30.61C26.5545 30.61 28.4255 29.9107 29.9588 28.512C31.4921 27.1133 32.2588 25.4145 32.2588 23.4155C32.2588 21.6785 31.7011 20.1933 30.5858 18.96C29.4705 17.7267 28.1135 17.11 26.5148 17.11C25.1108 17.11 23.9088 17.5683 22.9088 18.485C21.9088 19.4017 21.4088 20.5118 21.4088 21.8155C21.4088 22.3835 21.5128 22.9485 21.7208 23.5105C21.9288 24.0722 22.2581 24.5562 22.7088 24.9625C23.0835 25.3275 23.4793 25.481 23.8963 25.423C24.3133 25.3653 24.6521 25.1965 24.9128 24.9165C25.1735 24.6368 25.3213 24.3048 25.3563 23.9205C25.3913 23.5365 25.2421 23.183 24.9088 22.86C24.7421 22.701 24.6171 22.5453 24.5338 22.393C24.4505 22.2407 24.4088 22.063 24.4088 21.86C24.4088 21.401 24.5941 21.003 24.9648 20.666C25.3355 20.3287 25.8501 20.16 26.5088 20.16C27.2755 20.16 27.9338 20.4703 28.4838 21.091C29.0338 21.7113 29.3088 22.501 29.3088 23.46C29.3088 24.6327 28.8441 25.6258 27.9148 26.4395C26.9855 27.2532 25.8168 27.66 24.4088 27.66C22.7105 27.66 21.2693 26.985 20.0853 25.635C18.901 24.285 18.3088 22.61 18.3088 20.61C18.3088 19.8427 18.4171 19.0957 18.6338 18.369C18.8505 17.6423 19.1755 16.956 19.6088 16.31C19.8421 15.951 19.9505 15.5697 19.9338 15.166C19.9171 14.762 19.7588 14.41 19.4588 14.11C19.1588 13.81 18.8088 13.66 18.4088 13.66C18.0088 13.66 17.6755 13.8267 17.4088 14.16C16.7088 15.06 16.1755 16.06 15.8088 17.16C15.4421 18.26 15.2588 19.3933 15.2588 20.56C15.2588 23.3543 16.1423 25.7278 17.9093 27.6805C19.6763 29.6335 21.8218 30.61 24.3458 30.61ZM11.7373 35.5195C9.83731 33.7622 8.36231 31.7133 7.31231 29.373C6.26231 27.0323 5.7373 24.5747 5.7373 22C5.7373 16.9237 7.51231 12.6087 11.0623 9.05501C14.6123 5.50167 18.9231 3.72501 23.9948 3.72501C28.2208 3.72501 31.9661 4.97201 35.2308 7.46601C38.4951 9.95967 40.6226 13.201 41.6133 17.19L44.3753 28.162C44.5246 28.7003 44.4296 29.1852 44.0903 29.6165C43.7513 30.0475 43.2991 30.263 42.7338 30.263H38.2753V36.8565C38.2753 37.8015 37.9426 38.6055 37.2773 39.2685C36.612 39.9315 35.8051 40.263 34.8568 40.263H30.2753V42.56C30.2753 43.0407 30.1085 43.4447 29.7748 43.772C29.4411 44.0993 29.033 44.263 28.5503 44.263C28.0676 44.263 27.6648 44.0993 27.3418 43.772C27.0185 43.4447 26.8568 43.0407 26.8568 42.56V38.56C26.8568 38.079 27.0205 37.6748 27.3478 37.3475C27.6751 37.0202 28.0793 36.8565 28.5603 36.8565H34.8568V28.56C34.8568 28.079 35.0205 27.6748 35.3478 27.3475C35.6751 27.0202 36.0793 26.8565 36.5603 26.8565H40.5208L38.3188 18.036C37.5188 14.8423 35.7808 12.2285 33.1048 10.1945C30.4285 8.16051 27.3955 7.14351 24.0058 7.14351C19.8771 7.14351 16.368 8.57251 13.4783 11.4305C10.5886 14.2888 9.1438 17.7718 9.1438 21.8795C9.1438 24.0002 9.57847 26.021 10.4478 27.942C11.3175 29.863 12.5501 31.5632 14.1458 33.0425L15.1438 33.9945V42.56C15.1438 43.0407 14.9793 43.4447 14.6503 43.772C14.3213 44.0993 13.9151 44.263 13.4318 44.263C12.9485 44.263 12.5451 44.0993 12.2218 43.772C11.8988 43.4447 11.7373 43.0407 11.7373 42.56V35.5195Z" fill="black"/>
</svg>
