<svg width="50" height="49" viewBox="0 0 50 49" fill="none" xmlns="http://www.w3.org/2000/svg">
<path d="M11.5949 35.3635C8.54288 35.3635 5.98021 34.2519 3.90688 32.0285C1.83354 29.8052 0.796875 27.149 0.796875 24.06C0.796875 21.0044 1.84188 18.3899 3.93187 16.2165C6.02187 14.0432 8.57621 12.9565 11.5949 12.9565C12.8189 12.9565 14.0015 13.1605 15.1429 13.5685C16.2842 13.9762 17.2972 14.6049 18.1819 15.4545L22.7244 19.835L20.3134 22.21L16.0229 18.0165C15.4392 17.4325 14.7649 17.011 13.9999 16.752C13.2349 16.493 12.4352 16.3635 11.6009 16.3635C9.51921 16.3635 7.76604 17.118 6.34137 18.627C4.91638 20.136 4.20388 21.9485 4.20388 24.0645C4.20388 26.2139 4.90788 28.0665 6.31588 29.6225C7.72421 31.1785 9.48571 31.9565 11.6004 31.9565C12.4097 31.9565 13.195 31.8272 13.9564 31.5685C14.7174 31.3095 15.4049 30.9049 16.0189 30.3545L31.8189 15.4545C32.7035 14.6049 33.7165 13.9762 34.8579 13.5685C35.9992 13.1605 37.1652 12.9565 38.3559 12.9565C41.4079 12.9565 43.9789 14.0432 46.0689 16.2165C48.1589 18.3899 49.2039 21.0044 49.2039 24.06C49.2039 27.149 48.1589 29.8052 46.0689 32.0285C43.9789 34.2519 41.4079 35.3635 38.3559 35.3635C37.1652 35.3635 35.9909 35.1679 34.8329 34.7765C33.6749 34.3855 32.6702 33.7652 31.8189 32.9155L27.3884 28.535L29.7874 26.16L33.9814 30.3545C34.5324 30.9052 35.1959 31.3099 35.9719 31.5685C36.7482 31.8272 37.541 31.9565 38.3504 31.9565C40.465 31.9565 42.2349 31.1779 43.6599 29.6205C45.0845 28.0632 45.7969 26.211 45.7969 24.064C45.7969 21.9504 45.0762 20.1385 43.6349 18.6285C42.1932 17.1185 40.4317 16.3635 38.3504 16.3635C37.541 16.3635 36.7557 16.5095 35.9944 16.8015C35.2334 17.0939 34.5625 17.5152 33.9819 18.0655L18.1819 32.9655C17.2972 33.7819 16.2759 34.3855 15.1179 34.7765C13.9599 35.1679 12.7855 35.3635 11.5949 35.3635Z" fill="black"/>
</svg>
