<svg width="50" height="49" fill="none" xmlns="http://www.w3.org/2000/svg"><path d="M11.595 35.364c-3.052 0-5.615-1.112-7.688-3.335-2.073-2.224-3.11-4.88-3.11-7.969 0-3.056 1.045-5.67 3.135-7.843 2.09-2.174 4.644-3.26 7.663-3.26 1.224 0 2.406.204 3.548.611a8.444 8.444 0 013.039 1.886l4.542 4.381-2.41 2.375-4.291-4.194A5.174 5.174 0 0014 16.753a7.43 7.43 0 00-2.4-.389c-2.08 0-3.834.755-5.259 2.264-1.425 1.509-2.137 3.322-2.137 5.438 0 2.149.704 4.002 2.112 5.557 1.408 1.556 3.17 2.334 5.284 2.334.81 0 1.595-.129 2.356-.387a5.923 5.923 0 002.063-1.214l15.8-14.9a8.442 8.442 0 013.039-1.886 10.319 10.319 0 013.498-.613c3.052 0 5.623 1.087 7.713 3.26 2.09 2.174 3.135 4.788 3.135 7.844 0 3.089-1.045 5.745-3.135 7.969-2.09 2.223-4.661 3.334-7.713 3.334-1.19 0-2.365-.195-3.523-.587a7.688 7.688 0 01-3.014-1.86l-4.43-4.381 2.398-2.375 4.194 4.195c.551.55 1.215.955 1.99 1.213a7.45 7.45 0 002.38.388c2.114 0 3.884-.778 5.309-2.335 1.425-1.558 2.137-3.41 2.137-5.557 0-2.114-.72-3.925-2.162-5.436-1.442-1.51-3.203-2.265-5.285-2.265a6.51 6.51 0 00-2.356.439 6.048 6.048 0 00-2.012 1.264l-15.8 14.9a8.452 8.452 0 01-3.064 1.81 10.936 10.936 0 01-3.523.587z" fill="#000"/></svg>