<svg width="48" height="48" fill="none" xmlns="http://www.w3.org/2000/svg"><path d="M25.681 42.299c-.48 0-.884-.164-1.212-.493a1.66 1.66 0 01-.49-1.219c0-.483.163-.887.49-1.21a1.658 1.658 0 011.212-.485h13.211V9.107h-13.21a1.64 1.64 0 01-1.212-.493 1.659 1.659 0 01-.491-1.218c0-.482.163-.887.49-1.215a1.645 1.645 0 011.212-.492h13.211c.924 0 1.724.339 2.402 1.017.678.678 1.017 1.478 1.017 2.401v29.785c0 .92-.339 1.718-1.017 2.393-.678.676-1.478 1.014-2.401 1.014H25.68zm-2.125-16.596H7.404a1.64 1.64 0 01-1.212-.494 1.66 1.66 0 01-.491-1.218c0-.483.164-.886.491-1.21a1.658 1.658 0 011.212-.484h16.052L19.61 18.45c-.34-.342-.502-.742-.485-1.2.017-.46.195-.857.535-1.193.34-.344.743-.513 1.21-.51.466.005.872.176 1.215.516l6.793 6.794c.34.342.51.74.51 1.195 0 .454-.17.852-.51 1.192l-6.743 6.743c-.333.34-.729.503-1.187.491-.457-.011-.858-.189-1.204-.532a1.687 1.687 0 01-.5-1.213 1.644 1.644 0 01.504-1.221l3.808-3.809z" fill="#000"/></svg>