<svg width="48" height="48" viewBox="0 0 48 48" fill="none" xmlns="http://www.w3.org/2000/svg">
<path d="M25.6815 42.299C25.2008 42.299 24.7968 42.1345 24.4695 41.8055C24.1422 41.4765 23.9785 41.0703 23.9785 40.587C23.9785 40.1036 24.1422 39.7003 24.4695 39.377C24.7968 39.054 25.2008 38.8925 25.6815 38.8925H38.8925V9.10746H25.6815C25.2008 9.10746 24.7968 8.94296 24.4695 8.61396C24.1422 8.28496 23.9785 7.87913 23.9785 7.39646C23.9785 6.9138 24.1422 6.50863 24.4695 6.18096C24.7968 5.85296 25.2008 5.68896 25.6815 5.68896H38.8925C39.8158 5.68896 40.6163 6.02796 41.294 6.70596C41.972 7.38363 42.311 8.18413 42.311 9.10746V38.8925C42.311 39.8125 41.972 40.6101 41.294 41.2855C40.6163 41.9611 39.8158 42.299 38.8925 42.299H25.6815ZM23.5565 25.7035H7.40449C6.92349 25.7035 6.51932 25.5388 6.19199 25.2095C5.86466 24.8805 5.70099 24.4743 5.70099 23.991C5.70099 23.508 5.86466 23.1048 6.19199 22.7815C6.51932 22.4581 6.92349 22.2965 7.40449 22.2965H23.4565L19.61 18.45C19.27 18.1083 19.1083 17.7081 19.125 17.2495C19.1417 16.7905 19.32 16.393 19.66 16.057C19.9997 15.7133 20.4028 15.5435 20.8695 15.5475C21.3365 15.5515 21.7417 15.7233 22.085 16.063L28.8785 22.8565C29.2182 23.1991 29.388 23.5976 29.388 24.052C29.388 24.5063 29.2182 24.9035 28.8785 25.2435L22.135 31.987C21.8017 32.3266 21.4062 32.4905 20.9485 32.4785C20.4912 32.4665 20.0898 32.2891 19.7445 31.9465C19.4148 31.6118 19.248 31.2073 19.244 30.733C19.24 30.2586 19.408 29.8516 19.748 29.512L23.5565 25.7035Z" fill="black"/>
</svg>
