<svg width="84" height="36" fill="none" xmlns="http://www.w3.org/2000/svg"><g clip-path="url(#clip0_9202_423)" fill="#000"><path d="M73.911 17.081l-.037.038c.26-.706.78-.967 1.227-.967.632 0 1.189.483 1.189 1.19 0 .148 0 .334-.074.557-1.301 3.345-4.052 5.055-6.728 5.315-1.226 2.082-3.233 3.606-6.095 3.606-4.089 0-5.91-3.234-5.91-6.765 0-4.349 2.75-9.18 7.36-9.18a6.55 6.55 0 012.564.52c2.081.78 3.42 3.494 3.42 6.393 0 .929-.075 1.858-.298 2.75 1.375-.483 2.676-1.598 3.382-3.457zm-7.768-3.159v-.037c-.818 0-1.3 1.078-1.3 2.379 0 1.895 1.04 3.642 2.675 4.274.26-.817.372-1.747.372-2.825 0-2.081-.632-3.79-1.747-3.79zM63.43 24.106c1.04 0 2.081-.446 2.899-1.375-2.416-1.078-3.94-3.605-3.94-6.021 0-.818.149-1.673.372-2.416-1.487 1.226-2.342 3.642-2.342 5.761 0 2.75 1.301 4.051 3.01 4.051z"/><path d="M58.057 17.082l-.037.037c.26-.706.706-1.004 1.152-1.004.632 0 1.264.558 1.264 1.264 0 .186-.038.334-.112.52-1.45 3.531-3.605 7.657-7.062 10.073l-.074.743C52.778 33.175 50.512 36 47.65 36c-2.156 0-3.42-1.486-3.42-3.233 0-3.16 3.234-4.312 6.245-6.245.074-.78.111-1.672.148-2.676-1.487 1.636-3.085 2.305-4.497 2.305-2.825 0-5.13-2.305-5.13-5.836 0-5.426 3.569-8.994 7.546-8.994h.037c2.713 0 5.612 1.45 5.612 4.05 0 .856-.371 5.502-.669 9.107 2.007-1.896 3.68-4.98 4.535-7.396zm-11.522 6.393c1.375 0 3.233-.855 4.386-5.055.185-.93.297-1.747.26-2.714-.223-1.003-1.078-1.598-2.305-1.598-2.527 0-4.943 2.416-4.943 6.096 0 2.23 1.04 3.27 2.602 3.27zm1.412 9.812h.037c.78 0 1.636-.52 2.193-3.865-1.635.966-3.16 1.932-3.16 3.084 0 .484.372.781.93.781z"/><path d="M41.649 17.081l-.037.038c.26-.706.78-.967 1.226-.967.632 0 1.19.483 1.19 1.19 0 .148 0 .334-.075.557-1.3 3.345-4.05 5.055-6.727 5.315-1.227 2.082-3.234 3.606-6.096 3.606-4.088 0-5.91-3.234-5.91-6.765 0-4.349 2.751-9.18 7.36-9.18a6.55 6.55 0 012.565.52c2.081.78 3.42 3.494 3.42 6.393 0 .929-.075 1.858-.298 2.75 1.375-.483 2.676-1.598 3.382-3.457zm-7.768-3.159v-.037c-.818 0-1.301 1.078-1.301 2.379 0 1.895 1.04 3.642 2.676 4.274.26-.817.372-1.747.372-2.825 0-2.081-.632-3.79-1.747-3.79zm-2.713 10.184c1.04 0 2.081-.446 2.899-1.375-2.416-1.078-3.94-3.605-3.94-6.021 0-.818.149-1.673.372-2.416-1.487 1.226-2.342 3.642-2.342 5.761 0 2.75 1.3 4.051 3.01 4.051z"/><path d="M27.11 15.908c-.52 0-.967.26-1.264.967-.966 2.453-2.974 6.616-5.018 6.616-1.287 0-2.283-.291-3.29-.586-1.028-.3-2.067-.604-3.438-.604-.483 0-1.152.075-1.784.186 1.904-2.596 2.615-5.74 3.304-11.682a13.24 13.24 0 01-3.122-.564c-.822 7.537-1.755 10.41-5.162 13.25a1.83 1.83 0 00-.67 1.412c0 .818.707 1.524 1.599 1.524.297 0 .632-.111.966-.26 1.896-.855 3.048-1.078 4.46-1.078.899 0 1.974.257 3.124.532 1.326.317 2.752.657 4.125.657 3.01 0 4.98-2.936 7.173-8.623.112-.186.149-.409.149-.595 0-.706-.558-1.152-1.152-1.152z"/><path fill-rule="evenodd" clip-rule="evenodd" d="M12.687 8.703c.673.235 1.724.508 3.086.59h.223c4.2 0 6.95-2.603 6.95-5.725 0-2.007-1.56-3.568-3.754-3.568-2.936 0-4.98 2.007-6.02 5.984-1.302-.706-2.194-1.97-2.64-3.568-.223-.78-.706-1.264-1.375-1.264-.818 0-1.338.632-1.338 1.487 0 2.527 1.97 4.943 4.869 6.059l-.001.005zm3.532-2.124c.557-2.565 1.45-3.791 2.639-3.791.632 0 1.04.371 1.04 1.04 0 1.227-1.3 2.677-3.679 2.75z"/></g><defs><clipPath id="clip0_9202_423"><path fill="#fff" transform="translate(6.667)" d="M0 0h70v36H0z"/></clipPath></defs></svg>