<svg width="80" height="81" viewBox="0 0 80 81" fill="none" xmlns="http://www.w3.org/2000/svg">
<path d="M21.886 77.7852C20.3249 77.7852 18.9882 77.2293 17.876 76.1177C16.7643 75.0054 16.2085 73.6688 16.2085 72.1077V9.21266C16.2085 7.65155 16.7643 6.31488 17.876 5.20266C18.9882 4.09099 20.3249 3.53516 21.886 3.53516H58.1143C59.6754 3.53516 61.0121 4.09099 62.1243 5.20266C63.236 6.31488 63.7918 7.65155 63.7918 9.21266V72.1077C63.7918 73.6688 63.236 75.0054 62.1243 76.1177C61.0121 77.2293 59.6754 77.7852 58.1143 77.7852H21.886ZM21.886 69.6077V72.1077H58.1143V69.6077H21.886ZM21.886 11.7127H58.1143V9.21266H21.886V11.7127ZM40.0002 55.6602C36.7457 55.6602 33.5796 56.1468 30.5018 57.1202C27.4246 58.0935 24.5527 59.366 21.886 60.9377V64.6077H58.1143V60.9377C55.4477 59.366 52.5802 58.0935 49.5118 57.1202C46.4435 56.1468 43.2729 55.6602 40.0002 55.6602ZM40.0002 50.6602C43.2724 50.6602 46.4288 51.0774 49.4693 51.9118C52.5104 52.7463 55.3921 53.9004 58.1143 55.3743V16.7127H21.886V55.3743C24.6638 53.9004 27.5593 52.7463 30.5727 51.9118C33.5854 51.0774 36.7279 50.6602 40.0002 50.6602ZM40.0635 45.5293C42.7435 45.5293 45.0279 44.5915 46.9168 42.716C48.8057 40.8404 49.7502 38.5627 49.7502 35.8827C49.7502 33.2027 48.8124 30.9182 46.9368 29.0293C45.0607 27.1404 42.7829 26.196 40.1035 26.196C37.4235 26.196 35.1391 27.134 33.2502 29.0102C31.3613 30.8857 30.4168 33.1635 30.4168 35.8435C30.4168 38.5229 31.3546 40.8071 33.2302 42.696C35.1063 44.5849 37.3841 45.5293 40.0635 45.5293ZM40.0835 40.5293C38.8057 40.5293 37.7085 40.071 36.7918 39.1543C35.8752 38.2377 35.4168 37.1404 35.4168 35.8627C35.4168 34.5849 35.8752 33.4877 36.7918 32.571C37.7085 31.6543 38.8057 31.196 40.0835 31.196C41.3613 31.196 42.4585 31.6543 43.3752 32.571C44.2918 33.4877 44.7502 34.5849 44.7502 35.8627C44.7502 37.1404 44.2918 38.2377 43.3752 39.1543C42.4585 40.071 41.3613 40.5293 40.0835 40.5293ZM40.0102 64.6077H58.1143H21.886H40.0102Z" fill="black"/>
</svg>
