<svg width="80" height="81" fill="none" xmlns="http://www.w3.org/2000/svg"><path d="M21.886 77.785c-1.561 0-2.898-.556-4.01-1.667-1.112-1.113-1.668-2.45-1.668-4.01V9.213c0-1.561.556-2.898 1.668-4.01 1.112-1.112 2.449-1.668 4.01-1.668h36.228c1.561 0 2.898.556 4.01 1.668 1.112 1.112 1.668 2.449 1.668 4.01v62.895c0 1.56-.556 2.897-1.668 4.01-1.112 1.111-2.449 1.667-4.01 1.667H21.886zm0-8.177v2.5h36.228v-2.5H21.886zm0-57.895h36.228v-2.5H21.886v2.5zM40 55.66c-3.254 0-6.42.487-9.498 1.46a41.623 41.623 0 00-8.616 3.818v3.67h36.228v-3.67a41.718 41.718 0 00-8.602-3.818A31.266 31.266 0 0040 55.66zm0-5c3.272 0 6.429.417 9.47 1.252a40.727 40.727 0 018.644 3.462V16.713H21.886v38.661a42.92 42.92 0 018.687-3.462c3.012-.835 6.155-1.252 9.427-1.252zm.063-5.13c2.68 0 4.965-.938 6.854-2.814 1.889-1.876 2.833-4.153 2.833-6.833 0-2.68-.938-4.965-2.813-6.854-1.876-1.889-4.154-2.833-6.834-2.833-2.68 0-4.964.938-6.853 2.814-1.889 1.876-2.833 4.153-2.833 6.833 0 2.68.938 4.964 2.813 6.853 1.876 1.889 4.154 2.833 6.834 2.833zm.02-5c-1.277 0-2.374-.459-3.291-1.376-.917-.916-1.375-2.014-1.375-3.291 0-1.278.458-2.375 1.375-3.292.916-.917 2.014-1.375 3.291-1.375 1.278 0 2.376.458 3.292 1.375.917.917 1.375 2.014 1.375 3.292 0 1.277-.458 2.375-1.375 3.291-.916.917-2.014 1.375-3.291 1.375zm-.073 24.078h18.104-36.228H40.01z" fill="#000"/></svg>