<svg width="49" height="48" viewBox="0 0 49 48" fill="none" xmlns="http://www.w3.org/2000/svg">
<path d="M18.2743 40.299C17.7253 40.299 17.2101 40.1778 16.7288 39.9355C16.2474 39.6935 15.8511 39.3588 15.5398 38.9315L5.89726 26.039C5.44126 25.4446 5.21326 24.7676 5.21326 24.008C5.21326 23.2483 5.44126 22.566 5.89726 21.961L15.4898 9.06846C15.8011 8.63746 16.1974 8.2998 16.6788 8.05546C17.1601 7.81113 17.6753 7.68896 18.2243 7.68896H41.6093C42.5576 7.68896 43.3644 8.02163 44.0298 8.68696C44.6951 9.3523 45.0278 10.1591 45.0278 11.1075V36.8925C45.0278 37.8375 44.6951 38.6415 44.0298 39.3045C43.3644 39.9675 42.5576 40.299 41.6093 40.299H18.2743ZM18.2623 36.9045H41.6213V11.0955H18.2623L8.62026 24L18.2623 36.9045ZM20.3158 26.1575C20.9331 26.1575 21.4479 25.9506 21.8603 25.537C22.2726 25.123 22.4788 24.6101 22.4788 23.9985C22.4788 23.3868 22.2721 22.8745 21.8588 22.4615C21.4454 22.0488 20.9331 21.8425 20.3218 21.8425C19.7008 21.8425 19.1838 22.0493 18.7708 22.463C18.3581 22.877 18.1518 23.3898 18.1518 24.0015C18.1518 24.6131 18.3581 25.1255 18.7708 25.5385C19.1838 25.9511 19.6988 26.1575 20.3158 26.1575ZM28.0038 26.1575C28.6251 26.1575 29.1423 25.9506 29.5553 25.537C29.9679 25.123 30.1743 24.6101 30.1743 23.9985C30.1743 23.3868 29.9679 22.8745 29.5553 22.4615C29.1423 22.0488 28.6271 21.8425 28.0098 21.8425C27.3928 21.8425 26.8781 22.0493 26.4658 22.463C26.0534 22.877 25.8473 23.3898 25.8473 24.0015C25.8473 24.6131 26.0539 25.1255 26.4673 25.5385C26.8806 25.9511 27.3928 26.1575 28.0038 26.1575ZM35.7058 26.1575C36.3228 26.1575 36.8378 25.9506 37.2508 25.537C37.6638 25.123 37.8703 24.6101 37.8703 23.9985C37.8703 23.3868 37.6634 22.8745 37.2498 22.4615C36.8364 22.0488 36.3243 21.8425 35.7133 21.8425C35.0919 21.8425 34.5769 22.0493 34.1683 22.463C33.7593 22.877 33.5548 23.3898 33.5548 24.0015C33.5548 24.6131 33.7589 25.1255 34.1673 25.5385C34.5756 25.9511 35.0884 26.1575 35.7058 26.1575Z" fill="black"/>
</svg>
