<svg width="49" height="48" viewBox="0 0 49 48" fill="none" xmlns="http://www.w3.org/2000/svg">
<path d="M9.44082 44.349C8.52082 44.349 7.72316 44.0111 7.04782 43.3355C6.37216 42.6601 6.03432 41.8625 6.03432 40.9425V7.10746C6.03432 6.18413 6.37216 5.38363 7.04782 4.70596C7.72316 4.02796 8.52082 3.68896 9.44082 3.68896H35.2258C36.1492 3.68896 36.9497 4.02796 37.6273 4.70596C38.3053 5.38363 38.6443 6.18413 38.6443 7.10746V22.0705C38.6443 22.5595 38.4758 22.9676 38.1388 23.295C37.8018 23.6223 37.3877 23.782 36.8963 23.774C36.413 23.766 36.0137 23.5998 35.6983 23.2755C35.3833 22.9515 35.2258 22.5498 35.2258 22.0705V7.10746H23.4333V19.3585C23.4333 19.6941 23.2903 19.948 23.0043 20.12C22.7187 20.2923 22.4265 20.2871 22.1278 20.1045L18.6333 17.95L15.1508 20.1045C14.8442 20.2871 14.548 20.2923 14.2623 20.12C13.9763 19.948 13.8333 19.6941 13.8333 19.3585V7.10746H9.44082V40.9425H22.5998C23.0805 40.9425 23.4845 41.107 23.8118 41.436C24.1392 41.765 24.3028 42.1711 24.3028 42.6545C24.3028 43.1378 24.1392 43.541 23.8118 43.864C23.4845 44.1873 23.0805 44.349 22.5998 44.349H9.44082ZM36.7333 46C34.0333 46 31.7583 45.075 29.9083 43.225C28.0583 41.375 27.1333 39.1 27.1333 36.4C27.1333 33.7 28.0583 31.425 29.9083 29.575C31.7583 27.725 34.0333 26.8 36.7333 26.8C39.4333 26.8 41.7083 27.725 43.5583 29.575C45.4083 31.425 46.3333 33.7 46.3333 36.4C46.3333 39.1 45.4083 41.375 43.5583 43.225C41.7083 45.075 39.4333 46 36.7333 46ZM35.5888 40.1545L40.2898 37.1335C40.5552 36.9755 40.6878 36.7358 40.6878 36.4145C40.6878 36.0931 40.5552 35.8398 40.2898 35.6545L35.5888 32.6455C35.2902 32.4628 34.998 32.4488 34.7123 32.6035C34.4263 32.7581 34.2833 33.0041 34.2833 33.3415V39.4585C34.2833 39.7958 34.4263 40.0418 34.7123 40.1965C34.998 40.3511 35.2902 40.3371 35.5888 40.1545Z" fill="black"/>
</svg>
