<svg width="25" height="25" viewBox="0 0 25 25" fill="none" xmlns="http://www.w3.org/2000/svg">
<path fill-rule="evenodd" clip-rule="evenodd" d="M12.3333 3.66992C7.3647 3.66992 3.33325 7.70137 3.33325 12.6699C3.33325 17.6385 7.3647 21.6699 12.3333 21.6699C17.2921 21.6699 21.3333 17.6385 21.3333 12.6699C21.3333 7.70137 17.2921 3.66992 12.3333 3.66992ZM18.278 7.81851C19.3517 9.12654 19.996 10.7957 20.0155 12.6016C19.7617 12.5528 17.2237 12.0354 14.6663 12.3575C14.6077 12.2306 14.5589 12.094 14.5003 11.9573C14.3441 11.5864 14.1685 11.2057 13.9927 10.8445C16.8235 9.69272 18.112 8.03326 18.278 7.81851ZM12.3333 4.99747C14.2856 4.99747 16.0719 5.72958 17.4288 6.93023C17.2921 7.12545 16.1305 8.67751 13.3973 9.70245C12.1381 7.38901 10.7422 5.4953 10.5275 5.20246C11.1033 5.0658 11.7086 4.99747 12.3333 4.99747ZM9.06321 5.71981C9.26819 5.99313 10.6348 7.8966 11.9136 10.1612C8.32132 11.1179 5.14887 11.0983 4.80722 11.0983C5.30505 8.71656 6.91568 6.73499 9.06321 5.71981ZM4.64128 12.6797C4.64128 12.6016 4.64128 12.5235 4.64128 12.4454C4.97316 12.4551 8.70201 12.504 12.5383 11.3521C12.7628 11.7816 12.9678 12.2209 13.163 12.6601C13.0654 12.6894 12.958 12.7187 12.8604 12.748C8.89724 14.0267 6.78878 17.5213 6.61308 17.8141C5.3929 16.4573 4.64128 14.6515 4.64128 12.6797ZM12.3333 20.3619C10.5567 20.3619 8.91677 19.7567 7.6185 18.7415C7.75516 18.4584 9.31696 15.4519 13.6511 13.9389C13.6706 13.9291 13.6804 13.9291 13.6999 13.9194C14.7834 16.7209 15.2227 19.0733 15.3398 19.7469C14.4125 20.1471 13.3973 20.3619 12.3333 20.3619ZM16.6185 19.0441C16.5405 18.5755 16.1305 16.3304 15.125 13.5679C17.5361 13.1872 19.6446 13.812 19.9082 13.8999C19.5763 16.0376 18.3463 17.8825 16.6185 19.0441Z" fill="black"/>
</svg>
