<svg width="25" height="25" viewBox="0 0 25 25" fill="none" xmlns="http://www.w3.org/2000/svg">
<path fill-rule="evenodd" clip-rule="evenodd" d="M16.5 4.00195H8.5C5.73858 4.00195 3.5 6.24053 3.5 9.00195V17.002C3.5 19.7634 5.73858 22.002 8.5 22.002H16.5C19.2614 22.002 21.5 19.7634 21.5 17.002V9.00195C21.5 6.24053 19.2614 4.00195 16.5 4.00195ZM19.75 17.002C19.7445 18.7946 18.2926 20.2465 16.5 20.252H8.5C6.70735 20.2465 5.25549 18.7946 5.25 17.002V9.00195C5.25549 7.2093 6.70735 5.75744 8.5 5.75195H16.5C18.2926 5.75744 19.7445 7.2093 19.75 9.00195V17.002ZM17.25 9.25195C17.8023 9.25195 18.25 8.80423 18.25 8.25195C18.25 7.69967 17.8023 7.25195 17.25 7.25195C16.6977 7.25195 16.25 7.69967 16.25 8.25195C16.25 8.80423 16.6977 9.25195 17.25 9.25195ZM12.5 8.50195C10.0147 8.50195 8 10.5167 8 13.002C8 15.4873 10.0147 17.502 12.5 17.502C14.9853 17.502 17 15.4873 17 13.002C17.0027 11.8077 16.5294 10.6615 15.6849 9.81703C14.8404 8.97254 13.6943 8.49929 12.5 8.50195ZM9.75 13.002C9.75 14.5208 10.9812 15.752 12.5 15.752C14.0188 15.752 15.25 14.5208 15.25 13.002C15.25 11.4832 14.0188 10.252 12.5 10.252C10.9812 10.252 9.75 11.4832 9.75 13.002Z" fill="black"/>
</svg>
