<svg width="25" height="25" fill="none" xmlns="http://www.w3.org/2000/svg"><path fill-rule="evenodd" clip-rule="evenodd" d="M4.833 3.913a1.5 1.5 0 00-1.5 1.5v15a1.5 1.5 0 001.5 1.5h15a1.5 1.5 0 001.5-1.5v-15a1.5 1.5 0 00-1.5-1.5h-15zm4.021 4.002c.006.957-.71 1.546-1.56 1.542a1.502 1.502 0 01-1.493-1.54 1.493 1.493 0 011.54-1.505c.88.02 1.519.665 1.513 1.503zm3.759 2.76h-2.521v8.56h2.663v-1.34c-.001-1.014-.002-2.03.003-3.043.001-.246.013-.502.076-.737.237-.877 1.026-1.444 1.907-1.305.565.089.939.417 1.097.95.097.333.14.691.144 1.039.012 1.048.01 2.095.009 3.143l-.002 1.11v.18h2.672v-1.56c0-1.13-.001-2.26.002-3.39a6.039 6.039 0 00-.179-1.507c-.187-.734-.574-1.341-1.202-1.78-.446-.312-.935-.513-1.482-.536-.063-.002-.126-.006-.189-.01-.28-.014-.564-.03-.831.024-.765.153-1.437.504-1.945 1.121-.059.07-.117.143-.203.25l-.019.024v-1.194zm-6.598 8.562h2.65V10.68h-2.65v8.557z" fill="#000"/></svg>