<svg width="25" height="25" viewBox="0 0 25 25" fill="none" xmlns="http://www.w3.org/2000/svg">
<path fill-rule="evenodd" clip-rule="evenodd" d="M4.83325 3.9126C4.00482 3.9126 3.33325 4.58417 3.33325 5.4126V20.4126C3.33325 21.241 4.00482 21.9126 4.83325 21.9126H19.8333C20.6617 21.9126 21.3333 21.241 21.3333 20.4126V5.4126C21.3333 4.58417 20.6617 3.9126 19.8333 3.9126H4.83325ZM8.85401 7.91532C8.85964 8.87157 8.14386 9.46079 7.29448 9.45657C6.49432 9.45235 5.79682 8.81532 5.80104 7.91673C5.80526 7.07157 6.47323 6.39235 7.34089 6.41204C8.2212 6.43173 8.85964 7.0772 8.85401 7.91532ZM12.613 10.6744H10.093H10.0916V19.2342H12.755V19.0345C12.755 18.6546 12.7547 18.2746 12.7544 17.8945C12.7536 16.8807 12.7527 15.8658 12.7579 14.8523C12.7593 14.6062 12.7705 14.3503 12.8338 14.1154C13.0714 13.2379 13.8604 12.6712 14.7407 12.8105C15.306 12.899 15.68 13.2267 15.8375 13.7597C15.9346 14.0929 15.9782 14.4515 15.9824 14.7989C15.9938 15.8465 15.9922 16.8941 15.9906 17.9418C15.99 18.3116 15.9894 18.6816 15.9894 19.0514V19.2328H18.6613V19.0275C18.6613 18.5755 18.6611 18.1236 18.6608 17.6717C18.6603 16.5422 18.6597 15.4127 18.6627 14.2828C18.6641 13.7723 18.6093 13.2689 18.4841 12.7753C18.2971 12.0412 17.9104 11.4337 17.2818 10.995C16.836 10.6828 16.3466 10.4817 15.7996 10.4592C15.7373 10.4566 15.6745 10.4532 15.6114 10.4498C15.3317 10.4347 15.0474 10.4193 14.78 10.4733C14.015 10.6265 13.3429 10.9767 12.8352 11.594C12.7762 11.6648 12.7185 11.7367 12.6324 11.844L12.613 11.8683V10.6744ZM6.01489 19.237H8.66567V10.6799H6.01489V19.237Z" fill="black"/>
</svg>
