<svg width="24" height="25" viewBox="0 0 24 25" fill="none" xmlns="http://www.w3.org/2000/svg">
<path d="M21.593 7.54285C21.4791 7.12025 21.2565 6.73486 20.9473 6.42502C20.6382 6.11518 20.2533 5.89171 19.831 5.77685C18.265 5.34685 12 5.33985 12 5.33985C12 5.33985 5.73596 5.33285 4.16896 5.74385C3.74689 5.864 3.36279 6.09063 3.05353 6.40199C2.74427 6.71334 2.52025 7.09897 2.40296 7.52185C1.98996 9.08785 1.98596 12.3359 1.98596 12.3359C1.98596 12.3359 1.98196 15.5999 2.39196 17.1499C2.62196 18.0069 3.29696 18.6839 4.15496 18.9149C5.73696 19.3449 11.985 19.3519 11.985 19.3519C11.985 19.3519 18.25 19.3589 19.816 18.9489C20.2385 18.8342 20.6237 18.6112 20.9336 18.302C21.2435 17.9928 21.4673 17.6081 21.583 17.1859C21.997 15.6209 22 12.3739 22 12.3739C22 12.3739 22.02 9.10885 21.593 7.54285ZM9.99596 15.3449L10.001 9.34485L15.208 12.3499L9.99596 15.3449Z" fill="black"/>
</svg>
