<svg width="48" height="48" viewBox="0 0 48 48" fill="none" xmlns="http://www.w3.org/2000/svg">
<path d="M13.1197 46.299C12.1713 46.299 11.3645 45.9675 10.6992 45.3045C10.0338 44.6415 9.70117 43.8375 9.70117 42.8925V5.10749C9.70117 4.18416 10.0402 3.38366 10.7182 2.70599C11.3958 2.02799 12.1963 1.689 13.1197 1.689H34.7807C35.729 1.689 36.5358 2.02166 37.2012 2.68699C37.8665 3.35233 38.1992 4.15916 38.1992 5.10749V12.34C38.7992 12.475 39.3012 12.785 39.7052 13.27C40.1092 13.755 40.3112 14.3 40.3112 14.905V18.59C40.3112 19.2393 40.1092 19.8093 39.7052 20.3C39.3012 20.7907 38.7992 21.1022 38.1992 21.2345V42.8925C38.1992 43.8375 37.8665 44.6415 37.2012 45.3045C36.5358 45.9675 35.729 46.299 34.7807 46.299H13.1197ZM13.1077 42.9045H34.7927V5.09549H13.1077V42.9045ZM18.0092 31.988H29.9912C30.5572 31.988 31.0315 31.7963 31.4142 31.413C31.7968 31.0297 31.9882 30.5555 31.9882 29.9905V26.6495C31.9882 26.4832 31.9235 26.323 31.7942 26.169C31.6648 26.015 31.5128 25.9253 31.3382 25.9C30.9382 25.7597 30.6132 25.5143 30.3632 25.164C30.1132 24.8133 29.9882 24.4253 29.9882 24C29.9882 23.5747 30.1132 23.1867 30.3632 22.836C30.6132 22.4857 30.9382 22.2403 31.3382 22.1C31.5048 22.0747 31.6548 21.989 31.7882 21.843C31.9215 21.697 31.9882 21.5327 31.9882 21.35V18.0095C31.9882 17.4445 31.7968 16.9703 31.4142 16.587C31.0315 16.2037 30.5572 16.012 29.9912 16.012H18.0092C17.4432 16.012 16.9688 16.2037 16.5862 16.587C16.2035 16.9703 16.0122 17.4445 16.0122 18.0095V21.3505C16.0122 21.5168 16.0768 21.677 16.2062 21.831C16.3355 21.985 16.4875 22.0747 16.6622 22.1C17.0622 22.2403 17.3872 22.4857 17.6372 22.836C17.8872 23.1867 18.0122 23.5747 18.0122 24C18.0122 24.4253 17.8872 24.8133 17.6372 25.164C17.3872 25.5143 17.0622 25.7597 16.6622 25.9C16.4955 25.9253 16.3455 26.011 16.2122 26.157C16.0788 26.303 16.0122 26.4673 16.0122 26.65V29.9905C16.0122 30.5555 16.2035 31.0297 16.5862 31.413C16.9688 31.7963 17.4432 31.988 18.0092 31.988ZM24.0002 28.988C23.7335 28.988 23.5002 28.89 23.3002 28.694C23.1002 28.498 23.0002 28.2627 23.0002 27.988C23.0002 27.7213 23.1002 27.49 23.3002 27.294C23.5002 27.098 23.7335 27 24.0002 27C24.2668 27 24.5002 27.0988 24.7002 27.2965C24.9002 27.4942 25.0002 27.7247 25.0002 27.988C25.0002 28.2627 24.9002 28.498 24.7002 28.694C24.5002 28.89 24.2668 28.988 24.0002 28.988ZM24.0002 25C23.7335 25 23.5002 24.9 23.3002 24.7C23.1002 24.5 23.0002 24.2667 23.0002 24C23.0002 23.7333 23.1002 23.5 23.3002 23.3C23.5002 23.1 23.7335 23 24.0002 23C24.2668 23 24.5002 23.1 24.7002 23.3C24.9002 23.5 25.0002 23.7333 25.0002 24C25.0002 24.2667 24.9002 24.5 24.7002 24.7C24.5002 24.9 24.2668 25 24.0002 25ZM24.0002 21C23.7335 21 23.5002 20.9012 23.3002 20.7035C23.1002 20.5058 23.0002 20.2753 23.0002 20.012C23.0002 19.7373 23.1002 19.502 23.3002 19.306C23.5002 19.11 23.7335 19.012 24.0002 19.012C24.2668 19.012 24.5002 19.11 24.7002 19.306C24.9002 19.502 25.0002 19.7373 25.0002 20.012C25.0002 20.2787 24.9002 20.51 24.7002 20.706C24.5002 20.902 24.2668 21 24.0002 21Z" fill="black"/>
</svg>
