<svg width="16" height="16" viewBox="0 0 16 16" fill="none" xmlns="http://www.w3.org/2000/svg">
<path d="M1.90039 13.5319V2.4682C1.90039 2.3082 1.95522 2.17292 2.06489 2.06236C2.17456 1.95169 2.30995 1.89636 2.47106 1.89636C2.63217 1.89636 2.76661 1.95169 2.87439 2.06236C2.98206 2.17292 3.03589 2.3082 3.03589 2.4682V13.5319C3.03589 13.6922 2.98106 13.8269 2.87139 13.936C2.76172 14.0451 2.62634 14.0997 2.46522 14.0997C2.30411 14.0997 2.16972 14.0451 2.06206 13.936C1.95428 13.8269 1.90039 13.6922 1.90039 13.5319ZM12.9642 13.5319V2.4682C12.9642 2.3082 13.0191 2.17292 13.1287 2.06236C13.2384 1.95169 13.3737 1.89636 13.5346 1.89636C13.6954 1.89636 13.8305 1.95169 13.9397 2.06236C14.0491 2.17292 14.1037 2.3082 14.1037 2.4682V13.5319C14.1037 13.6922 14.0481 13.8269 13.9369 13.936C13.8256 14.0451 13.6895 14.0997 13.5287 14.0997C13.3678 14.0997 13.2335 14.0451 13.1257 13.936C13.0181 13.8269 12.9642 13.6922 12.9642 13.5319ZM7.99706 5.80186C7.83606 5.80186 7.70167 5.74625 7.59389 5.63503C7.48611 5.52392 7.43222 5.38797 7.43222 5.2272C7.43222 5.06753 7.48711 4.93347 7.59689 4.82503C7.70656 4.71658 7.84195 4.66236 8.00306 4.66236C8.16406 4.66236 8.29845 4.7177 8.40622 4.82836C8.514 4.93914 8.56789 5.07453 8.56789 5.23453C8.56789 5.39464 8.513 5.52919 8.40322 5.63819C8.29356 5.74731 8.15817 5.80186 7.99706 5.80186ZM5.23122 8.56786C5.07156 8.56786 4.9375 8.51297 4.82906 8.40319C4.72061 8.29353 4.66639 8.15814 4.66639 7.99703C4.66639 7.83603 4.72172 7.70164 4.83239 7.59386C4.94306 7.48608 5.07845 7.43219 5.23856 7.43219C5.39867 7.43219 5.53322 7.48708 5.64222 7.59686C5.75134 7.70653 5.80589 7.84192 5.80589 8.00303C5.80589 8.16403 5.75028 8.29842 5.63906 8.40619C5.52795 8.51397 5.392 8.56786 5.23122 8.56786ZM7.99706 8.56786C7.83606 8.56786 7.70167 8.51297 7.59389 8.40319C7.48611 8.29353 7.43222 8.15814 7.43222 7.99703C7.43222 7.83603 7.48711 7.70164 7.59689 7.59386C7.70656 7.48608 7.84195 7.43219 8.00306 7.43219C8.16406 7.43219 8.29845 7.48708 8.40622 7.59686C8.514 7.70653 8.56789 7.84192 8.56789 8.00303C8.56789 8.16403 8.513 8.29842 8.40322 8.40619C8.29356 8.51397 8.15817 8.56786 7.99706 8.56786ZM10.7656 8.56786C10.6054 8.56786 10.4709 8.51297 10.3619 8.40319C10.2528 8.29353 10.1982 8.15814 10.1982 7.99703C10.1982 7.83603 10.2538 7.70164 10.3651 7.59386C10.4762 7.48608 10.6121 7.43219 10.7729 7.43219C10.9326 7.43219 11.0666 7.48708 11.1751 7.59686C11.2835 7.70653 11.3377 7.84192 11.3377 8.00303C11.3377 8.16403 11.2824 8.29842 11.1717 8.40619C11.0609 8.51397 10.9256 8.56786 10.7656 8.56786ZM7.99706 11.3337C7.83606 11.3337 7.70167 11.2784 7.59389 11.1677C7.48611 11.057 7.43222 10.9216 7.43222 10.7615C7.43222 10.6014 7.48711 10.4669 7.59689 10.3579C7.70656 10.2488 7.84195 10.1942 8.00306 10.1942C8.16406 10.1942 8.29845 10.2498 8.40622 10.361C8.514 10.4721 8.56789 10.6081 8.56789 10.7689C8.56789 10.9285 8.513 11.0626 8.40322 11.171C8.29356 11.2795 8.15817 11.3337 7.99706 11.3337ZM7.99706 3.03586C7.83606 3.03586 7.70167 2.98053 7.59389 2.86986C7.48611 2.7592 7.43222 2.62381 7.43222 2.4637C7.43222 2.30358 7.48711 2.16903 7.59689 2.06003C7.70656 1.95092 7.84195 1.89636 8.00306 1.89636C8.16406 1.89636 8.29845 1.95197 8.40622 2.06319C8.514 2.17431 8.56789 2.31025 8.56789 2.47103C8.56789 2.6307 8.513 2.76475 8.40322 2.8732C8.29356 2.98164 8.15817 3.03586 7.99706 3.03586ZM7.99706 14.0997C7.83606 14.0997 7.70167 14.0446 7.59389 13.9344C7.48611 13.8242 7.43222 13.6895 7.43222 13.5302C7.43222 13.371 7.48711 13.2368 7.59689 13.1277C7.70656 13.0187 7.84195 12.9642 8.00306 12.9642C8.16406 12.9642 8.29845 13.0195 8.40622 13.1302C8.514 13.2409 8.56789 13.3762 8.56789 13.5364C8.56789 13.6965 8.513 13.8304 8.40322 13.938C8.29356 14.0458 8.15817 14.0997 7.99706 14.0997Z" fill="black"/>
</svg>
