<svg width="16" height="16" fill="none" xmlns="http://www.w3.org/2000/svg"><path d="M1.9 13.532V2.468c0-.16.055-.295.165-.406a.55.55 0 01.406-.166.56.56 0 01.565.572v11.064c0 .16-.055.295-.165.404a.553.553 0 01-.406.164.552.552 0 01-.565-.568zm11.064 0V2.468c0-.16.055-.295.165-.406a.549.549 0 01.406-.166.55.55 0 01.405.166c.11.11.164.246.164.406v11.064c0 .16-.056.295-.167.404a.561.561 0 01-.408.164.553.553 0 01-.565-.568zm-4.967-7.73a.564.564 0 01-.565-.575.54.54 0 01.165-.402.555.555 0 01.406-.163.56.56 0 01.565.572c0 .16-.055.295-.165.404a.553.553 0 01-.406.164zM5.231 8.568a.555.555 0 01-.565-.57.56.56 0 01.572-.565c.16 0 .295.054.404.164a.55.55 0 01.164.406.564.564 0 01-.575.565zm2.766 0a.557.557 0 01-.565-.57.557.557 0 01.57-.565.557.557 0 01.565.57.557.557 0 01-.57.565zm2.769 0a.546.546 0 01-.404-.165.553.553 0 01-.164-.406.563.563 0 01.575-.565.557.557 0 01.565.571.56.56 0 01-.572.565zm-2.769 2.766a.56.56 0 01-.565-.572c0-.16.055-.295.165-.404a.553.553 0 01.406-.164.564.564 0 01.565.575.54.54 0 01-.165.402.555.555 0 01-.406.163zm0-8.298a.56.56 0 01-.565-.572c0-.16.055-.295.165-.404a.553.553 0 01.406-.164.564.564 0 01.565.575.54.54 0 01-.165.402.555.555 0 01-.406.163zm0 11.064a.556.556 0 01-.565-.57c0-.159.055-.293.165-.402a.554.554 0 01.406-.164.56.56 0 01.565.572.557.557 0 01-.57.563z" fill="#000"/></svg>