<svg width="16" height="16" viewBox="0 0 16 16" fill="none" xmlns="http://www.w3.org/2000/svg">
<path d="M4.37339 15.433C4.05728 15.433 3.78833 15.3225 3.56655 15.1015C3.34478 14.8805 3.23389 14.6125 3.23389 14.2975V1.70249C3.23389 1.39471 3.34689 1.12788 3.57289 0.901988C3.79878 0.675988 4.06561 0.562988 4.37339 0.562988H11.5937C11.9098 0.562988 12.1788 0.673877 12.4006 0.895654C12.6223 1.11743 12.7332 1.38638 12.7332 1.70249V4.11332C12.9332 4.15832 13.1006 4.26165 13.2352 4.42332C13.3699 4.58499 13.4372 4.76665 13.4372 4.96832V6.19665C13.4372 6.4131 13.3699 6.6031 13.2352 6.76665C13.1006 6.93021 12.9332 7.03404 12.7332 7.07815V14.2975C12.7332 14.6125 12.6223 14.8805 12.4006 15.1015C12.1788 15.3225 11.9098 15.433 11.5937 15.433H4.37339ZM4.36939 14.3015H11.5977V1.69849H4.36939V14.3015ZM6.00322 10.6627H9.99722C10.1859 10.6627 10.344 10.5988 10.4716 10.471C10.5991 10.3432 10.6629 10.1852 10.6629 9.99682V8.88315C10.6629 8.82771 10.6413 8.77432 10.5982 8.72299C10.5551 8.67165 10.5044 8.64176 10.4462 8.63332C10.3129 8.58654 10.2046 8.50477 10.1212 8.38799C10.0379 8.2711 9.99622 8.14177 9.99622 7.99999C9.99622 7.85821 10.0379 7.72888 10.1212 7.61199C10.2046 7.49521 10.3129 7.41343 10.4462 7.36665C10.5018 7.35821 10.5518 7.32965 10.5962 7.28099C10.6407 7.23232 10.6629 7.17754 10.6629 7.11665V6.00315C10.6629 5.81482 10.5991 5.65676 10.4716 5.52899C10.344 5.40121 10.1859 5.33732 9.99722 5.33732H6.00322C5.81455 5.33732 5.65644 5.40121 5.52889 5.52899C5.40133 5.65676 5.33755 5.81482 5.33755 6.00315V7.11682C5.33755 7.17227 5.35911 7.22565 5.40222 7.27699C5.44533 7.32832 5.496 7.35821 5.55422 7.36665C5.68755 7.41343 5.79589 7.49521 5.87922 7.61199C5.96255 7.72888 6.00422 7.85821 6.00422 7.99999C6.00422 8.14177 5.96255 8.2711 5.87922 8.38799C5.79589 8.50477 5.68755 8.58654 5.55422 8.63332C5.49866 8.64176 5.44866 8.67032 5.40422 8.71899C5.35978 8.76765 5.33755 8.82243 5.33755 8.88332V9.99682C5.33755 10.1852 5.40133 10.3432 5.52889 10.471C5.65644 10.5988 5.81455 10.6627 6.00322 10.6627ZM8.00022 9.66265C7.91133 9.66265 7.83355 9.62999 7.76689 9.56465C7.70022 9.49932 7.66689 9.42088 7.66689 9.32932C7.66689 9.24043 7.70022 9.16332 7.76689 9.09799C7.83355 9.03265 7.91133 8.99999 8.00022 8.99999C8.08911 8.99999 8.16689 9.03293 8.23355 9.09882C8.30022 9.16471 8.33355 9.24154 8.33355 9.32932C8.33355 9.42088 8.30022 9.49932 8.23355 9.56465C8.16689 9.62999 8.08911 9.66265 8.00022 9.66265ZM8.00022 8.33332C7.91133 8.33332 7.83355 8.29999 7.76689 8.23332C7.70022 8.16665 7.66689 8.08888 7.66689 7.99999C7.66689 7.9111 7.70022 7.83332 7.76689 7.76665C7.83355 7.69999 7.91133 7.66665 8.00022 7.66665C8.08911 7.66665 8.16689 7.69999 8.23355 7.76665C8.30022 7.83332 8.33355 7.9111 8.33355 7.99999C8.33355 8.08888 8.30022 8.16665 8.23355 8.23332C8.16689 8.29999 8.08911 8.33332 8.00022 8.33332ZM8.00022 6.99999C7.91133 6.99999 7.83355 6.96704 7.76689 6.90115C7.70022 6.83527 7.66689 6.75843 7.66689 6.67065C7.66689 6.5791 7.70022 6.50065 7.76689 6.43532C7.83355 6.36999 7.91133 6.33732 8.00022 6.33732C8.08911 6.33732 8.16689 6.36999 8.23355 6.43532C8.30022 6.50065 8.33355 6.5791 8.33355 6.67065C8.33355 6.75954 8.30022 6.83665 8.23355 6.90199C8.16689 6.96732 8.08911 6.99999 8.00022 6.99999Z" fill="black"/>
</svg>
