<svg width="16" height="16" viewBox="0 0 16 16" fill="none" xmlns="http://www.w3.org/2000/svg">
<path d="M14.2759 14.0337C14.2061 14.0337 14.1359 14.0206 14.0654 13.9944C13.9951 13.9681 13.9295 13.9246 13.8686 13.8639L12.1603 12.1555H5.08378C4.76878 12.1555 4.50078 12.0446 4.27978 11.8229C4.05878 11.601 3.94828 11.332 3.94828 11.016V9.68269H11.2298C11.542 9.68269 11.8093 9.57219 12.0318 9.35119C12.2541 9.13008 12.3653 8.86208 12.3653 8.54719V3.93619H13.6986C14.0147 3.93619 14.2837 4.04708 14.5054 4.26886C14.7272 4.49075 14.8381 4.75969 14.8381 5.07569V13.466C14.8381 13.6428 14.7778 13.7816 14.6571 13.8825C14.5364 13.9833 14.4094 14.0337 14.2759 14.0337ZM2.30161 8.65769L3.41211 7.54719H10.2298V2.28952H2.30161V8.65769ZM1.72961 10.6015C1.59161 10.6015 1.4625 10.5511 1.34228 10.4502C1.22216 10.3493 1.16211 10.2105 1.16211 10.0337V2.28952C1.16211 1.97341 1.273 1.70447 1.49478 1.48269C1.71655 1.26091 1.9855 1.15002 2.30161 1.15002H10.2298C10.542 1.15002 10.8093 1.26091 11.0318 1.48269C11.2541 1.70447 11.3653 1.97341 11.3653 2.28952V7.54719C11.3653 7.86208 11.2541 8.13008 11.0318 8.35119C10.8093 8.57219 10.542 8.68269 10.2298 8.68269H3.87661L2.13161 10.4275C2.06805 10.4911 2.00178 10.536 1.93278 10.5622C1.86366 10.5884 1.79594 10.6015 1.72961 10.6015Z" fill="black"/>
</svg>
