<svg width="16" height="17" viewBox="0 0 16 17" fill="none" xmlns="http://www.w3.org/2000/svg">
<path d="M3.00806 14.1587H12.9961V12.2783H3.00806V14.1587ZM5.25589 11.1706H10.7442L10.3531 8.38515H5.64789L5.25589 11.1706ZM2.46822 15.2663C2.30789 15.2663 2.17317 15.2118 2.06406 15.1027C1.95495 14.9935 1.90039 14.8588 1.90039 14.6985V12.3101C1.90039 11.994 2.01089 11.7251 2.23189 11.5033C2.45289 11.2815 2.72089 11.1706 3.03589 11.1706H4.14822L4.54022 8.38515H3.28556C3.13089 8.38515 3.00028 8.33154 2.89372 8.22432C2.78706 8.11698 2.73372 7.98554 2.73372 7.82998C2.73372 7.67443 2.78706 7.54348 2.89372 7.43715C3.00028 7.33071 3.13089 7.27748 3.28556 7.27748H12.7146C12.8703 7.27748 13.0019 7.33137 13.1092 7.43915C13.2167 7.54693 13.2704 7.67904 13.2704 7.83548C13.2704 7.99182 13.2167 8.12248 13.1092 8.22748C13.0019 8.33259 12.8703 8.38515 12.7146 8.38515H11.4599L11.8559 11.1706H12.9642C13.2803 11.1706 13.5493 11.2815 13.7711 11.5033C13.9928 11.7251 14.1037 11.994 14.1037 12.3101V14.6985C14.1037 14.8588 14.0484 14.9935 13.9377 15.1027C13.8272 15.2118 13.6919 15.2663 13.5319 15.2663H2.46822ZM8.00256 1.93298C8.07178 1.93298 8.13978 1.94543 8.20656 1.97032C8.27345 1.99521 8.33589 2.03121 8.39389 2.07832C8.69389 2.3121 9.00228 2.48543 9.31906 2.59832C9.63595 2.71132 9.96006 2.76782 10.2914 2.76782C10.5474 2.76782 10.8084 2.73493 11.0746 2.66915C11.3406 2.60348 11.6009 2.49832 11.8556 2.35365C11.9439 2.30921 12.0308 2.28965 12.1164 2.29498C12.2018 2.30021 12.2763 2.32837 12.3399 2.37948C12.4034 2.4306 12.4539 2.49293 12.4912 2.56648C12.5286 2.64015 12.5348 2.71932 12.5099 2.80398L11.5179 7.27748H10.3729L11.1316 3.75948C10.9538 3.79282 10.7921 3.81926 10.6464 3.83882C10.5007 3.85837 10.3666 3.86815 10.2439 3.86815C9.83856 3.87871 9.448 3.82832 9.07222 3.71698C8.69656 3.60565 8.33922 3.43887 8.00022 3.21665C7.66145 3.43887 7.30345 3.60565 6.92622 3.71698C6.54889 3.82832 6.15756 3.87871 5.75222 3.86815C5.63222 3.86815 5.50006 3.85837 5.35572 3.83882C5.21139 3.81926 5.05034 3.79282 4.87256 3.75948L5.62722 7.27748H4.48622L3.50222 2.80398C3.47734 2.71209 3.48356 2.63048 3.52089 2.55915C3.55822 2.48782 3.60928 2.42676 3.67406 2.37598C3.74139 2.32254 3.81522 2.29159 3.89556 2.28315C3.97589 2.27459 4.06289 2.29809 4.15656 2.35365C4.40678 2.48743 4.66406 2.58987 4.92839 2.66098C5.19261 2.73221 5.45139 2.76782 5.70472 2.76782C6.03872 2.76782 6.36417 2.71132 6.68106 2.59832C6.99783 2.48543 7.30622 2.3121 7.60622 2.07832C7.66311 2.03121 7.72611 1.99521 7.79522 1.97032C7.86433 1.94543 7.93345 1.93298 8.00256 1.93298Z" fill="black"/>
</svg>
