<svg width="16" height="17" fill="none" xmlns="http://www.w3.org/2000/svg"><path d="M3.008 14.159h9.988v-1.88H3.008v1.88zm2.248-2.988h5.488l-.39-2.786H5.647l-.392 2.786zm-2.788 4.095a.55.55 0 01-.404-.163.55.55 0 01-.164-.405V12.31c0-.316.11-.585.332-.807a1.09 1.09 0 01.804-.332h1.112l.392-2.786H3.286a.531.531 0 01-.392-.16.538.538 0 01-.16-.395.53.53 0 01.16-.393.533.533 0 01.392-.16h9.429c.155 0 .287.054.394.162a.54.54 0 01.161.396.542.542 0 01-.556.55H11.46l.396 2.786h1.108c.316 0 .585.11.807.332.222.222.333.491.333.807v2.388c0 .16-.056.295-.166.405a.556.556 0 01-.406.163H2.468zM8.003 1.933a.58.58 0 01.204.037.679.679 0 01.187.108c.3.234.608.407.925.52.317.113.641.17.972.17.256 0 .517-.033.784-.099.266-.066.526-.17.78-.315a.505.505 0 01.261-.059c.086.005.16.033.224.084a.566.566 0 01.151.187.312.312 0 01.019.238l-.992 4.473h-1.145l.759-3.518c-.178.034-.34.06-.486.08-.145.02-.28.03-.402.03-.405.01-.796-.04-1.172-.152A4.043 4.043 0 018 3.217a4.03 4.03 0 01-1.074.5 3.775 3.775 0 01-1.174.151c-.12 0-.252-.01-.396-.03a9.745 9.745 0 01-.483-.079l.754 3.518h-1.14l-.985-4.473a.327.327 0 01.019-.245.561.561 0 01.153-.183.422.422 0 01.222-.093.425.425 0 01.26.07c.25.134.508.237.772.308a2.886 2.886 0 001.753-.063c.317-.113.625-.286.925-.52a.628.628 0 01.397-.145z" fill="#000"/></svg>