<svg width="16" height="17" viewBox="0 0 16 17" fill="none" xmlns="http://www.w3.org/2000/svg">
<path d="M6.01707 15.3262C5.7504 15.3262 5.52079 15.2298 5.32823 15.0372C5.13557 14.8445 5.03923 14.6145 5.03923 14.347C5.03923 14.0795 5.13529 13.8493 5.3274 13.6567C5.51951 13.4641 5.74895 13.3678 6.01573 13.3678C6.2824 13.3678 6.51201 13.464 6.70457 13.6562C6.89723 13.8485 6.99357 14.0781 6.99357 14.345C6.99357 14.6138 6.89751 14.8445 6.7054 15.0372C6.51329 15.2298 6.28384 15.3262 6.01707 15.3262ZM13.1574 15.3262C12.8906 15.3262 12.6605 15.2298 12.4671 15.0372C12.2736 14.8445 12.1769 14.6145 12.1769 14.347C12.1769 14.0795 12.2736 13.8493 12.4671 13.6567C12.6605 13.4641 12.8906 13.3678 13.1574 13.3678C13.4241 13.3678 13.6543 13.464 13.8482 13.6562C14.0422 13.8485 14.1392 14.0781 14.1392 14.345C14.1392 14.6138 14.0422 14.8445 13.8482 15.0372C13.6543 15.2298 13.4241 15.3262 13.1574 15.3262ZM9.06057 5.71667L6.39423 2.51384C6.8399 2.28673 7.30407 2.11706 7.78673 2.00484C8.26929 1.89273 8.71612 1.83667 9.12723 1.83667C9.59234 1.83667 10.0485 1.8865 10.4957 1.98617C10.9428 2.08595 11.3715 2.23695 11.7816 2.43917C11.934 2.53339 12.0186 2.66423 12.0352 2.83167C12.0519 2.99923 11.9951 3.14123 11.8649 3.25767L9.06057 5.71667ZM8.29973 11.48H11.0241L6.13557 5.60284V9.31634C6.13557 9.94145 6.3404 10.4583 6.75007 10.867C7.15984 11.2757 7.6764 11.48 8.29973 11.48ZM1.80123 4.65184C1.63812 4.65184 1.50273 4.59795 1.39507 4.49017C1.28729 4.3825 1.2334 4.24662 1.2334 4.08251C1.2334 3.43206 1.43807 2.87401 1.8474 2.40834C2.25673 1.94267 2.75968 1.70984 3.35623 1.70984C3.68912 1.70984 4.00434 1.78128 4.3019 1.92417C4.59945 2.06695 4.95245 2.38706 5.3609 2.88451L12.4627 11.3895C12.6586 11.6214 12.6886 11.8844 12.5527 12.1785C12.4167 12.4725 12.188 12.6195 11.8664 12.6195H8.29973C7.37051 12.6195 6.58829 12.301 5.95307 11.664C5.31773 11.027 5.00007 10.2443 5.00007 9.31601V4.21484L4.54857 3.70067C4.24812 3.36112 4.01379 3.13434 3.84557 3.02034C3.67734 2.90634 3.51262 2.84934 3.3514 2.84934C3.0254 2.84934 2.78018 2.97601 2.61573 3.22934C2.45118 3.48278 2.3689 3.76723 2.3689 4.08267C2.3689 4.24667 2.31507 4.3825 2.2074 4.49017C2.09962 4.59795 1.96423 4.65184 1.80123 4.65184Z" fill="black"/>
</svg>
