<svg width="16" height="17" fill="none" xmlns="http://www.w3.org/2000/svg"><path d="M6.017 15.326a.94.94 0 01-.689-.289.942.942 0 01-.289-.69c0-.268.096-.498.288-.69a.938.938 0 01.689-.29c.266 0 .496.097.689.29a.94.94 0 01.289.688c0 .269-.096.5-.289.692a.938.938 0 01-.688.29zm7.14 0a.945.945 0 01-.69-.289.94.94 0 01-.29-.69.94.94 0 01.29-.69.945.945 0 01.69-.29c.267 0 .497.097.691.29a.936.936 0 01.291.688c0 .269-.097.5-.29.692a.947.947 0 01-.692.29zm-4.096-9.61L6.394 2.515c.446-.227.91-.397 1.393-.51a5.95 5.95 0 011.34-.167c.465 0 .921.05 1.369.15.447.099.875.25 1.286.452a.502.502 0 01.253.393.48.48 0 01-.17.426L9.06 5.717zM8.3 11.48h2.724L6.136 5.603v3.713c0 .625.204 1.142.614 1.551.41.409.926.613 1.55.613zM1.8 4.652a.55.55 0 01-.568-.57c0-.65.205-1.208.614-1.674.41-.465.913-.698 1.51-.698.332 0 .647.071.945.214.297.143.65.463 1.059.96l7.102 8.505c.196.232.226.495.09.79a.704.704 0 01-.687.44H8.3c-.93 0-1.712-.318-2.347-.955S5 10.244 5 9.316V4.215L4.55 3.7c-.3-.34-.535-.567-.703-.68a.881.881 0 00-.495-.172c-.326 0-.57.127-.735.38a1.533 1.533 0 00-.247.854.552.552 0 01-.568.569z" fill="#000"/></svg>