<svg width="16" height="17" viewBox="0 0 16 17" fill="none" xmlns="http://www.w3.org/2000/svg">
<path d="M8.00163 4.24283C7.65374 4.24283 7.35641 4.11939 7.10963 3.8725C6.86274 3.62561 6.7393 3.32889 6.7393 2.98233C6.7393 2.63567 6.86213 2.33822 7.1078 2.09C7.35335 1.84189 7.65007 1.71783 7.99796 1.71783C8.34585 1.71783 8.64318 1.84145 8.88996 2.08867C9.13685 2.33589 9.2603 2.63311 9.2603 2.98033C9.2603 3.32645 9.13746 3.62339 8.8918 3.87117C8.64624 4.11895 8.34952 4.24283 8.00163 4.24283ZM6.16463 14.6547V6.3345C5.52818 6.28206 4.90696 6.22039 4.30096 6.1495C3.69485 6.07861 3.1098 5.98339 2.5458 5.86383C2.37957 5.82784 2.25496 5.74339 2.17196 5.6105C2.08885 5.47761 2.06596 5.33367 2.1033 5.17867C2.14063 5.02356 2.23085 4.90933 2.37396 4.836C2.51718 4.76278 2.67135 4.74411 2.83646 4.78C3.68091 4.95778 4.52424 5.08211 5.36646 5.153C6.20868 5.224 7.08646 5.2595 7.99979 5.2595C8.91313 5.2595 9.79157 5.224 10.6351 5.153C11.4787 5.08211 12.324 4.95778 13.1711 4.78C13.3374 4.74667 13.4908 4.76622 13.6316 4.83867C13.7725 4.91111 13.8614 5.02445 13.8983 5.17867C13.9343 5.33367 13.9107 5.47695 13.8276 5.6085C13.7446 5.74006 13.62 5.82383 13.4538 5.85984C12.8898 5.97939 12.3047 6.07528 11.6986 6.1475C11.0926 6.21972 10.4727 6.28206 9.83896 6.3345V14.6547C9.83896 14.8088 9.78618 14.9379 9.68063 15.0422C9.57507 15.1464 9.44424 15.1985 9.28813 15.1985C9.13324 15.1985 9.00435 15.1464 8.90146 15.0422C8.79868 14.9379 8.74729 14.8088 8.74729 14.6547V10.8333H7.2523V14.6547C7.2523 14.8088 7.19974 14.9379 7.09463 15.0422C6.98941 15.1464 6.85907 15.1985 6.70363 15.1985C6.54818 15.1985 6.41946 15.1464 6.31746 15.0422C6.21557 14.9379 6.16463 14.8088 6.16463 14.6547Z" fill="black"/>
</svg>
