<svg width="16" height="16" viewBox="0 0 16 16" fill="none" xmlns="http://www.w3.org/2000/svg">
<path d="M1.2334 12.2975V3.7025C1.2334 3.38917 1.34457 3.12094 1.5669 2.89783C1.78934 2.67461 2.05668 2.563 2.3689 2.563H13.6306C13.9439 2.563 14.2121 2.67461 14.4352 2.89783C14.6585 3.12094 14.7701 3.38917 14.7701 3.7025V12.2975C14.7701 12.6097 14.6585 12.8771 14.4352 13.0995C14.2121 13.3218 13.9439 13.433 13.6306 13.433H2.3689C2.05668 13.433 1.78934 13.3218 1.5669 13.0995C1.34457 12.8771 1.2334 12.6097 1.2334 12.2975ZM13.6306 7.5V3.7025H2.3689V7.5H13.6306ZM6.39107 12.2975H13.6306V8.5H6.39107V12.2975ZM2.3689 12.2975H5.39107V8.5H2.3689V12.2975Z" fill="black"/>
</svg>
