<svg width="16" height="16" viewBox="0 0 16 16" fill="none" xmlns="http://www.w3.org/2000/svg">
<path d="M2.56738 10.2895V4C2.56738 3.51578 2.67827 3.09745 2.90005 2.745C3.12172 2.39256 3.45799 2.10533 3.90888 1.88333C4.35977 1.66133 4.9266 1.49689 5.60938 1.39C6.29227 1.28311 7.08927 1.22967 8.00038 1.22967C8.95594 1.22967 9.77516 1.28033 10.458 1.38167C11.1408 1.483 11.7028 1.64467 12.1439 1.86667C12.5849 2.08867 12.9107 2.37389 13.1214 2.72233C13.332 3.07089 13.4374 3.49678 13.4374 4V10.2895C13.4374 10.9809 13.201 11.5686 12.7284 12.0525C12.2558 12.5364 11.6772 12.7836 10.9924 12.7942L11.4257 13.2275C11.603 13.4048 11.6439 13.6084 11.5484 13.8383C11.4528 14.0683 11.2765 14.1833 11.0195 14.1833C10.9469 14.1833 10.878 14.1709 10.8129 14.146C10.7478 14.1211 10.6874 14.0796 10.6319 14.0213L9.40872 12.8022H6.59205L5.37288 14.0213C5.31466 14.0796 5.25283 14.1211 5.18738 14.146C5.12194 14.1709 5.05355 14.1833 4.98222 14.1833C4.73199 14.1833 4.55727 14.0683 4.45805 13.8383C4.35872 13.6084 4.39772 13.4048 4.57505 13.2275L5.00838 12.7942C4.32361 12.7836 3.74555 12.5364 3.27422 12.0525C2.80299 11.5686 2.56738 10.9809 2.56738 10.2895ZM8.00038 2.36917C6.66705 2.36917 5.70594 2.45528 5.11705 2.6275C4.52816 2.79972 4.10594 3.04695 3.85038 3.36917H12.1645C11.9645 3.06917 11.5455 2.8275 10.9074 2.64417C10.2694 2.46083 9.30038 2.36917 8.00038 2.36917ZM3.70288 6.9525H7.56705V4.36917H3.70288V6.9525ZM10.9167 7.9525H3.70288H12.2979H10.9167ZM8.56705 6.9525H12.2979V4.36917H8.56705V6.9525ZM5.60372 10.766C5.8566 10.766 6.0726 10.6771 6.25172 10.4993C6.43083 10.3216 6.52038 10.1049 6.52038 9.84933C6.52038 9.59644 6.43083 9.38045 6.25172 9.20133C6.0726 9.02222 5.85594 8.93267 5.60172 8.93267C5.34749 8.93267 5.13149 9.02222 4.95372 9.20133C4.77594 9.38045 4.68705 9.59711 4.68705 9.85133C4.68705 10.1056 4.77594 10.3216 4.95372 10.4993C5.13149 10.6771 5.34816 10.766 5.60372 10.766ZM10.401 10.766C10.6539 10.766 10.8699 10.6771 11.049 10.4993C11.2282 10.3216 11.3177 10.1049 11.3177 9.84933C11.3177 9.59644 11.2282 9.38045 11.049 9.20133C10.8699 9.02222 10.6533 8.93267 10.399 8.93267C10.1448 8.93267 9.92883 9.02222 9.75105 9.20133C9.57327 9.38045 9.48438 9.59711 9.48438 9.85133C9.48438 10.1056 9.57327 10.3216 9.75105 10.4993C9.92883 10.6771 10.1455 10.766 10.401 10.766ZM5.08405 11.75H10.9167C11.3058 11.75 11.6333 11.6069 11.899 11.3208C12.1649 11.0348 12.2979 10.6911 12.2979 10.2895V7.9525H3.70288V10.2895C3.70288 10.6911 3.83583 11.0348 4.10172 11.3208C4.36749 11.6069 4.69494 11.75 5.08405 11.75ZM8.00038 3.36917H12.1645H3.85038H8.00038Z" fill="black"/>
</svg>
