<svg width="16" height="16" viewBox="0 0 16 16" fill="none" xmlns="http://www.w3.org/2000/svg">
<path d="M7.0281 9.79883L5.8941 14.9485C5.86921 15.0814 5.80343 15.1901 5.69677 15.2745C5.59021 15.3589 5.46971 15.4012 5.33527 15.4012C5.1516 15.4012 5.00232 15.3326 4.88743 15.1955C4.77254 15.0584 4.7331 14.9041 4.7691 14.7327L6.6731 5.016C6.72899 4.73866 6.86149 4.52444 7.0706 4.37333C7.27971 4.22222 7.50071 4.14666 7.7336 4.14666C7.96382 4.14666 8.1801 4.19866 8.38243 4.30266C8.58488 4.40666 8.74988 4.55711 8.87743 4.754L9.52343 5.82066C9.73454 6.17622 10.0183 6.48755 10.3746 6.75466C10.7308 7.02189 11.147 7.23061 11.6231 7.38083V6.504C11.6231 6.40044 11.6601 6.31105 11.7341 6.23583C11.808 6.1605 11.8967 6.12283 12.0003 6.12283C12.1038 6.12283 12.1925 6.1605 12.2664 6.23583C12.3404 6.31105 12.3774 6.40044 12.3774 6.504V15.0238C12.3774 15.1274 12.3404 15.2162 12.2664 15.2902C12.1925 15.3642 12.1038 15.4012 12.0003 15.4012C11.8967 15.4012 11.808 15.3642 11.7341 15.2902C11.6601 15.2162 11.6231 15.1274 11.6231 15.0238V8.49716C11.0803 8.37761 10.5649 8.16822 10.0769 7.869C9.58882 7.56989 9.15032 7.19916 8.76143 6.75683L8.3021 9.062L9.53693 10.234C9.60038 10.296 9.64521 10.3626 9.67143 10.4338C9.69766 10.5049 9.71077 10.5778 9.71077 10.6525V14.8572C9.71077 15.0133 9.65916 15.1429 9.55593 15.2462C9.45271 15.3495 9.32304 15.4012 9.16693 15.4012C9.01082 15.4012 8.88115 15.3495 8.77793 15.2462C8.67471 15.1429 8.6231 15.0133 8.6231 14.8572V11.3145L7.0281 9.79883ZM4.31693 8.641L3.6021 8.49883C3.45032 8.4745 3.3336 8.39588 3.25193 8.263C3.17038 8.13022 3.14204 7.98916 3.16693 7.83983L3.66693 5.22316C3.72782 4.88239 3.90799 4.61989 4.20743 4.43566C4.50699 4.25155 4.83565 4.19411 5.19343 4.26333C5.33732 4.29088 5.45215 4.36977 5.53793 4.5C5.62371 4.63022 5.65415 4.76727 5.62927 4.91116L4.98393 8.18916C4.95693 8.34172 4.87699 8.46205 4.7441 8.55016C4.61121 8.63816 4.46882 8.66844 4.31693 8.641ZM8.8341 3.3895C8.4871 3.3895 8.19021 3.26472 7.94343 3.01516C7.69654 2.76572 7.5731 2.46883 7.5731 2.1245C7.5731 1.7775 7.69638 1.48011 7.94293 1.23233C8.18938 0.984441 8.4861 0.860497 8.8331 0.860497C9.1801 0.860497 9.47699 0.984441 9.72377 1.23233C9.97065 1.48011 10.0941 1.7775 10.0941 2.1245C10.0941 2.46883 9.97082 2.76572 9.72427 3.01516C9.47782 3.26472 9.1811 3.3895 8.8341 3.3895Z" fill="black"/>
</svg>
